<?xml version="1.0" standalone="no"?>
<!DOCTYPE svg PUBLIC "-//W3C//DTD SVG 20010904//EN"
 "http://www.w3.org/TR/2001/REC-SVG-20010904/DTD/svg10.dtd">
<svg version="1.0" xmlns="http://www.w3.org/2000/svg"
 width="460.000000pt" height="460.000000pt" viewBox="0 0 460.000000 460.000000"
 preserveAspectRatio="xMidYMid meet">
<metadata>
Created by potrace 1.14, written by Peter Selinger 2001-2017
</metadata>
<g transform="translate(0.000000,460.000000) scale(0.100000,-0.100000)"
fill="#000000" stroke="none">
<path d="M3866 4585 c-3 -8 -15 -15 -26 -15 -11 0 -30 -10 -41 -21 -15 -15
-24 -18 -29 -10 -5 9 -10 8 -20 -4 -8 -10 -9 -15 -1 -15 6 0 11 -7 11 -16 0
-14 -2 -14 -16 -3 -14 11 -18 11 -29 -4 -7 -9 -17 -17 -23 -17 -22 0 -72 -36
-72 -52 0 -9 -9 -20 -20 -23 -11 -3 -23 -17 -26 -31 -3 -13 -10 -24 -16 -24
-5 0 -21 -14 -35 -30 -18 -23 -31 -29 -45 -24 -14 4 -18 2 -14 -5 4 -6 2 -11
-5 -11 -7 0 -10 -3 -6 -6 7 -8 -17 -34 -32 -34 -6 0 -16 -9 -23 -20 -7 -11
-18 -20 -25 -20 -7 0 -13 -4 -13 -10 0 -5 -16 -10 -35 -10 -19 0 -35 5 -35 10
0 7 -6 7 -20 0 -11 -6 -20 -17 -20 -25 0 -8 -4 -15 -10 -15 -5 0 -10 -9 -10
-20 0 -12 5 -17 14 -14 19 7 15 -34 -4 -46 -13 -8 -12 -10 3 -10 9 0 17 -7 17
-16 0 -8 5 -12 10 -9 6 3 10 3 10 -1 0 -8 -48 -51 -73 -65 -16 -9 -17 -8 -8 9
6 11 17 22 25 25 8 3 14 15 13 26 -1 24 -12 27 -24 7 -4 -7 -23 -21 -40 -30
-18 -9 -33 -23 -33 -31 0 -8 -7 -15 -15 -15 -10 0 -15 -9 -14 -27 0 -16 3 -22
6 -15 10 24 23 11 23 -23 0 -19 -3 -34 -7 -33 -15 4 -54 -23 -48 -33 4 -5 0
-12 -9 -15 -8 -3 -12 -12 -9 -20 7 -18 -5 -18 -23 1 -11 11 -12 15 -3 15 10 0
10 3 1 12 -10 10 -15 10 -21 -1 -5 -8 -7 -20 -4 -28 3 -7 -4 -16 -17 -21 -18
-7 -19 -10 -8 -19 7 -6 26 -15 41 -18 24 -6 28 -5 25 11 -2 13 4 20 20 22 15
2 22 -2 22 -12 0 -9 -6 -16 -14 -16 -7 0 -26 -17 -42 -37 -15 -21 -29 -40 -31
-43 -2 -2 -8 2 -13 10 -7 11 -11 11 -24 1 -9 -7 -25 -11 -36 -8 -11 3 -20 2
-20 -3 0 -4 9 -10 20 -13 26 -7 26 -27 1 -27 -23 0 -30 -9 -33 -44 -3 -32 -41
-55 -62 -37 -22 18 -66 -11 -66 -44 0 -1 18 -5 40 -7 32 -3 40 0 38 12 -2 9 9
19 32 27 47 17 48 17 46 -12 -1 -26 -20 -34 -30 -12 -4 8 -5 7 -5 -3 1 -8 1
-20 0 -26 -1 -13 -49 -13 -69 -1 -7 5 -11 5 -10 0 4 -11 -39 -53 -46 -45 -3 3
-6 0 -6 -7 0 -7 6 -11 13 -8 8 3 20 1 28 -4 8 -5 9 -9 2 -9 -17 0 -3 -39 19
-51 16 -9 25 -6 44 12 23 22 25 22 59 6 23 -11 36 -13 41 -6 4 7 26 9 55 7 51
-5 56 0 50 48 -1 10 23 38 76 86 14 13 29 16 57 11 l39 -6 -7 36 c-6 33 -5 37
14 37 11 0 20 -4 20 -10 0 -5 -4 -10 -10 -10 -5 0 -10 -5 -10 -10 0 -6 12 -8
28 -5 26 6 26 6 8 -9 -11 -9 -22 -16 -25 -16 -15 0 -27 -48 -17 -69 8 -18 16
-21 44 -19 29 2 38 9 51 36 12 24 21 31 36 28 28 -7 40 3 55 47 8 27 16 37 27
33 9 -4 17 1 20 14 3 11 10 20 15 20 6 0 7 -7 4 -16 -3 -9 -6 -20 -6 -25 0 -5
-4 -9 -10 -9 -17 0 -50 -34 -50 -51 0 -20 -26 -44 -49 -44 -18 0 -16 -35 2
-47 9 -6 8 -8 -1 -8 -8 0 -12 -9 -11 -22 2 -13 0 -28 -4 -35 -4 -6 -3 -14 2
-18 6 -3 8 -12 5 -19 -3 -8 -1 -17 5 -21 17 -10 13 -46 -7 -51 -22 -6 -43 -49
-30 -62 12 -12 1 -35 -12 -27 -16 10 -29 -22 -23 -59 5 -30 12 -39 39 -51 19
-8 34 -21 34 -31 0 -12 6 -15 24 -12 22 4 23 2 16 -18 -10 -25 5 -94 20 -94 5
0 18 -10 29 -21 12 -13 26 -19 35 -16 11 4 18 -1 22 -18 4 -18 13 -25 30 -25
18 0 27 -9 39 -36 8 -20 23 -38 34 -41 11 -3 21 -13 24 -23 2 -9 18 -23 36
-31 17 -8 31 -20 31 -26 0 -7 5 -13 11 -13 6 0 7 -5 2 -12 -11 -18 -15 -39
-14 -70 0 -36 -9 -35 -34 1 -29 45 -105 48 -105 5 0 -18 -34 -35 -62 -30 -29
5 -69 -30 -60 -53 5 -14 3 -14 -11 -3 -8 8 -13 20 -10 28 3 9 -2 14 -16 14
-20 0 -22 -4 -25 -40 -1 -9 -11 -15 -24 -14 -27 1 -27 -1 -2 -33 11 -14 20
-38 20 -53 0 -15 6 -33 14 -39 9 -8 11 -22 7 -49 -14 -75 14 -111 63 -79 12 8
33 17 47 19 13 1 33 16 43 33 18 27 20 28 24 10 2 -10 -1 -21 -7 -23 -6 -2
-11 -10 -11 -17 0 -7 -6 -15 -14 -18 -8 -3 -16 -16 -18 -29 -2 -13 -9 -22 -16
-20 -6 1 -12 -3 -12 -10 0 -6 -6 -4 -13 6 -11 15 -15 16 -25 3 -8 -9 -9 -22
-4 -37 6 -16 11 -19 16 -12 9 15 46 16 46 1 0 -5 4 -8 10 -4 5 3 18 0 30 -7
15 -10 20 -23 20 -60 0 -47 5 -53 38 -49 7 1 18 -12 25 -28 7 -21 18 -31 32
-31 11 0 15 -3 9 -8 -19 -13 -15 -95 6 -122 17 -23 21 -24 42 -11 23 14 23 14
4 -8 -11 -11 -27 -21 -38 -21 -20 0 -24 -15 -6 -26 6 -4 14 -2 16 4 2 7 10 12
17 12 10 0 11 -5 2 -24 -6 -13 -17 -21 -24 -19 -7 3 -13 1 -13 -5 0 -18 -60
-37 -80 -24 -15 9 -19 7 -24 -14 -4 -15 -14 -24 -26 -24 -10 0 -21 -4 -25 -9
-8 -14 -45 -9 -45 5 0 7 -3 21 -7 31 -6 15 -4 16 8 6 12 -10 15 -8 15 6 0 12
-6 17 -18 13 -23 -6 -24 15 0 22 9 3 -2 3 -25 0 -34 -5 -43 -3 -43 10 0 8 -6
19 -12 23 -12 7 -17 33 -19 90 -1 12 6 30 15 38 9 9 16 26 17 38 0 12 2 33 4
47 2 14 1 19 -1 13 -4 -9 -14 -6 -34 9 -16 11 -35 18 -42 15 -8 -2 -22 1 -32
8 -16 13 -16 14 2 19 14 5 18 13 15 26 -6 22 -22 27 -24 8 -1 -7 -4 0 -8 16
-3 16 -12 31 -20 34 -8 3 -11 0 -8 -5 3 -5 -3 -14 -13 -21 -13 -8 -21 -8 -25
-1 -4 6 -11 6 -18 1 -7 -5 -27 -12 -45 -14 -26 -4 -37 0 -48 16 -11 16 -16 18
-23 8 -9 -15 -3 -62 9 -62 4 0 10 -14 14 -32 8 -43 23 -58 57 -58 36 0 38 -17
4 -26 -14 -3 -23 -10 -20 -14 8 -12 -19 -29 -43 -27 -12 1 -22 4 -22 7 0 12
-42 30 -53 23 -20 -12 -57 -15 -57 -3 0 5 7 10 16 10 11 0 14 5 10 16 -3 9 -6
19 -6 23 0 6 -13 7 -72 2 -10 0 -18 -7 -18 -15 0 -24 -20 -30 -34 -11 -10 13
-20 16 -40 11 -18 -4 -25 -3 -21 4 3 5 2 10 -4 10 -5 0 -12 -6 -14 -12 -4 -10
-6 -10 -6 0 -1 7 -8 20 -16 29 -14 14 -18 14 -35 -2 -19 -17 -20 -17 -20 0 0
15 -3 16 -12 7 -15 -15 -38 -15 -38 0 0 6 -10 22 -22 35 -12 13 -17 23 -11 23
6 0 13 -6 16 -12 3 -10 8 -9 18 3 17 20 96 34 101 19 2 -6 19 3 37 20 40 34
36 33 62 19 24 -12 15 -32 -12 -24 -14 5 -17 2 -13 -9 4 -11 -4 -17 -30 -21
-20 -4 -34 -11 -31 -15 3 -5 -1 -10 -7 -13 -20 -7 -7 -14 37 -20 27 -4 35 -3
25 3 -13 8 -13 10 2 10 10 0 18 9 20 23 2 15 11 23 28 26 14 1 27 7 30 12 3 4
11 -1 18 -11 11 -17 10 -20 -8 -20 -11 0 -20 -4 -20 -10 0 -15 26 -12 40 5 9
11 16 12 26 4 10 -8 13 -3 16 23 2 27 8 34 28 36 30 5 52 21 44 33 -3 5 -1 9
4 9 11 0 9 30 -4 54 -13 22 -50 17 -48 -7 1 -9 -4 -17 -11 -17 -8 0 -11 8 -8
23 10 47 10 47 40 32 26 -14 29 -13 51 15 13 17 30 30 38 30 8 0 13 4 9 9 -3
5 -1 12 4 15 16 10 1 42 -29 59 -27 17 -29 16 -35 -3 -8 -24 -47 -48 -53 -32
-2 7 -11 8 -25 3 -27 -10 -47 -4 -47 15 0 17 -24 18 -37 2 -6 -7 -13 -25 -17
-40 -6 -26 -5 -26 25 -18 19 6 39 5 55 -2 26 -12 34 -34 9 -24 -9 3 -15 0 -15
-10 0 -9 -6 -14 -12 -11 -7 2 -12 10 -10 16 1 6 -2 11 -8 11 -5 0 -10 -15 -10
-34 0 -19 -2 -40 -5 -48 -5 -14 37 -38 67 -38 10 0 18 -6 18 -13 0 -8 -7 -14
-15 -14 -8 0 -15 4 -15 9 0 5 -6 8 -12 7 -7 -1 -26 3 -41 9 -16 7 -32 12 -36
12 -5 0 -11 9 -14 20 -3 12 -1 20 6 19 34 -4 40 2 19 17 -13 9 -29 13 -37 10
-9 -3 -15 1 -15 10 0 18 -31 15 -38 -4 -2 -8 3 -10 15 -6 10 3 3 -4 -16 -16
-32 -20 -61 -21 -61 -1 0 13 -89 8 -116 -7 -23 -12 -67 -5 -58 9 3 5 14 9 25
9 11 0 30 11 42 24 12 13 41 29 65 35 23 7 42 17 42 22 0 6 10 19 23 29 12 10
19 22 15 26 -4 4 -14 1 -22 -5 -10 -9 -16 -9 -21 -1 -4 6 -15 8 -26 5 -19 -6
-23 8 -23 87 0 9 -3 15 -8 12 -4 -3 -8 -1 -8 4 0 37 87 36 92 -1 3 -20 4 -20
33 7 17 16 29 34 27 42 -4 19 8 18 24 -3 7 -10 16 -14 20 -10 5 4 2 12 -6 17
-8 5 -11 12 -7 16 4 4 16 -3 26 -15 22 -26 36 -22 44 11 5 21 5 21 -7 6 -18
-24 -27 -22 -22 5 2 12 9 21 15 19 6 -1 11 4 11 12 0 8 13 24 30 37 17 14 30
34 30 47 0 12 6 31 12 42 10 15 10 25 2 38 -17 26 -36 21 -47 -13 -14 -43 -37
-66 -59 -59 -14 4 -18 0 -18 -21 0 -17 -4 -25 -12 -22 -7 2 -12 11 -10 18 3
11 1 12 -9 2 -18 -18 -26 -16 -31 5 -3 10 -24 28 -47 39 -32 16 -38 23 -28 31
7 6 22 9 34 6 11 -3 24 -1 27 5 5 8 13 8 27 0 35 -18 59 -19 59 -2 0 22 22 83
30 83 4 0 5 14 2 30 -3 20 0 30 8 30 9 0 7 7 -6 21 -18 20 -14 30 20 42 11 4
-11 47 -24 47 -6 0 -10 7 -10 15 0 14 12 20 34 16 4 -1 13 5 20 12 6 8 22 17
36 20 14 4 45 31 70 61 30 36 58 58 83 67 36 12 97 68 97 89 0 6 7 10 15 10
20 0 36 63 25 100 -5 18 -5 32 1 35 18 11 9 25 -16 25 -14 0 -25 -6 -25 -12 0
-15 -54 -48 -76 -48 -8 0 -17 -6 -20 -13 -6 -15 -118 -26 -164 -15 -8 2 -15
-4 -15 -12 0 -8 9 -16 20 -19 24 -4 37 -21 30 -38 -5 -16 -3 -16 29 -4 17 7
26 7 30 -2 3 -9 5 -8 5 1 1 7 6 10 13 6 7 -5 9 -2 5 9 -9 24 33 49 56 32 25
-18 21 -33 -8 -27 -28 5 -29 4 -14 -35 8 -22 12 -24 19 -13 8 12 10 11 10 -6
0 -27 -10 -36 -25 -24 -16 13 -45 2 -45 -17 0 -10 -6 -13 -16 -9 -9 4 -23 1
-30 -5 -8 -6 -27 -9 -42 -6 -19 4 -38 -1 -58 -14 -16 -10 -32 -19 -36 -19 -12
0 16 73 33 83 16 10 14 13 -14 34 -33 25 -41 28 -32 14 10 -16 -14 -23 -57
-16 -29 5 -37 10 -27 16 11 7 11 9 -3 9 -9 0 -30 -16 -46 -36 -25 -30 -35 -35
-56 -30 -18 4 -31 1 -45 -13 -11 -11 -22 -17 -25 -14 -3 4 -15 -2 -26 -12 -11
-10 -20 -14 -20 -10 0 4 -8 1 -17 -7 -18 -16 -103 -21 -103 -6 0 5 5 8 10 8 6
0 10 7 10 16 0 10 -6 14 -15 10 -19 -7 -45 3 -45 18 0 6 10 12 23 13 12 1 40
4 62 7 34 4 37 3 18 -6 -26 -12 -30 -36 -9 -44 16 -6 58 25 50 38 -3 4 11 6
30 3 26 -3 36 0 36 9 0 8 7 16 15 20 15 6 10 36 -7 36 -5 0 -7 -4 -4 -9 6 -10
-24 -25 -32 -16 -3 3 0 11 6 17 19 19 14 28 -13 28 -23 0 -24 -2 -13 -20 20
-31 -1 -45 -46 -30 -20 6 -34 16 -30 21 3 5 14 7 24 4 25 -8 31 6 19 48 -11
41 -29 50 -29 15 0 -16 -3 -19 -9 -10 -6 10 -10 10 -21 -3 -14 -17 -30 -20
-30 -5 0 6 7 10 15 10 8 0 15 6 15 14 0 9 -8 12 -26 8 -20 -4 -25 -1 -22 9 3
8 13 13 22 11 13 -2 17 3 14 21 -3 24 24 62 36 50 3 -4 6 3 6 14 0 23 37 38
55 23 15 -12 42 8 47 35 2 16 12 21 45 23 24 2 44 9 47 18 3 8 -1 14 -9 14
-21 0 -19 34 4 54 17 15 20 15 34 1 9 -8 24 -15 34 -15 23 1 70 36 60 46 -4 4
-2 13 5 21 6 7 8 16 5 20 -4 3 -2 14 4 25 10 18 8 19 -13 12 -12 -4 -28 -14
-35 -23 -11 -14 -12 -14 -13 -1 0 10 -7 7 -20 -10 -12 -15 -20 -20 -20 -11 0
8 -7 22 -16 32 -15 17 -18 17 -50 2 -34 -17 -41 -27 -25 -37 8 -5 -11 -79 -29
-116 -4 -8 -17 -14 -28 -13 -11 1 -26 -4 -32 -12 -7 -8 -17 -15 -22 -15 -6 0
-5 7 3 16 10 13 10 17 -1 24 -18 11 -13 16 23 25 17 5 27 3 27 -4 0 -6 8 -11
18 -11 15 1 15 2 -3 16 -16 12 -17 18 -8 33 10 16 7 18 -36 20 -26 0 -68 -5
-95 -13 -43 -13 -47 -13 -44 2 2 10 15 18 31 20 32 4 32 5 11 37 -22 34 -46
33 -38 0 4 -18 2 -25 -9 -25 -19 0 -29 -24 -15 -38 7 -7 3 -17 -12 -32 -19
-19 -21 -26 -12 -41 27 -43 -26 -64 -94 -39 -27 11 -60 -3 -49 -20 3 -5 -4 -6
-15 -3 -21 6 -28 -11 -9 -22 7 -5 4 -13 -7 -26 -15 -17 -15 -19 0 -25 9 -3 16
-13 16 -20 0 -11 -4 -12 -19 -4 -32 16 -64 11 -95 -16 -15 -14 -27 -27 -25
-29 2 -2 21 -6 42 -10 32 -6 37 -5 37 12 0 28 9 33 36 21 30 -14 31 -34 2 -58
-17 -13 -25 -15 -31 -7 -6 9 -10 9 -14 0 -2 -7 -18 -13 -34 -13 -19 0 -29 -5
-29 -15 0 -8 -4 -15 -10 -15 -5 0 -10 9 -10 19 0 27 -17 35 -29 14 -9 -16 -12
-16 -21 -3 -5 8 -10 20 -10 25 0 6 5 3 10 -5 8 -13 10 -13 10 2 0 9 9 20 20
23 11 3 20 10 20 14 0 15 -13 20 -31 11 -20 -11 -68 3 -81 23 -16 26 -7 37 30
38 26 1 29 3 12 6 -49 8 -55 12 -35 27 26 19 13 51 -13 35 -14 -9 -18 -22 -16
-50 2 -36 0 -39 -23 -39 -33 0 -25 -24 10 -28 16 -2 27 -9 27 -19 0 -10 -6
-13 -16 -9 -12 4 -15 2 -11 -9 7 -16 -8 -28 -37 -31 -11 0 -22 -6 -24 -12 -5
-15 -39 -16 -47 -2 -11 18 -21 11 -30 -22 -6 -19 -20 -37 -32 -43 -13 -5 -23
-13 -23 -17 0 -4 -9 -12 -20 -18 -18 -10 -19 -8 -13 22 3 18 10 35 15 36 4 2
8 10 8 18 0 9 11 14 30 14 31 0 39 17 18 38 -8 8 -9 12 -1 12 6 0 14 -5 16
-10 3 -6 4 -5 3 2 -1 6 -9 16 -18 21 -20 13 -80 -13 -73 -32 6 -16 -14 -43
-26 -35 -5 3 -12 -2 -15 -10 -6 -16 -34 -23 -34 -8 0 14 20 37 32 37 7 0 14 9
17 20 3 17 1 18 -13 6 -12 -10 -19 -11 -30 -2 -10 8 -16 9 -21 1 -3 -5 -15
-10 -27 -10 -17 0 -19 -2 -7 -16 7 -8 21 -13 31 -11 10 3 18 1 18 -4 0 -5 -5
-9 -11 -9 -5 0 -7 -4 -4 -10 4 -6 -14 -10 -47 -10 -50 0 -52 1 -30 16 20 14
21 17 7 30 -18 19 -11 34 16 34 20 0 26 15 9 25 -16 10 -11 22 13 30 12 4 25
7 30 6 4 -1 7 3 7 9 0 5 -9 10 -20 10 -11 0 -20 5 -20 11 0 6 9 9 19 6 11 -3
22 1 25 9 3 9 -4 16 -19 20 -26 7 -33 32 -14 51 21 21 19 96 -2 116 -24 22
-24 46 -1 54 9 4 20 11 23 16 4 5 25 11 48 12 50 4 66 15 69 49 2 25 -6 31
-35 27 -13 -2 -17 11 -14 37 1 6 -8 12 -19 12 -18 0 -20 5 -16 40 3 32 0 43
-16 54 -18 13 -25 12 -63 -4 -36 -15 -46 -16 -71 -5 -54 23 -166 44 -191 34
-14 -5 -23 -5 -23 1 0 17 -89 -34 -90 -52 0 -11 -5 -15 -14 -12 -8 3 -16 -4
-20 -20 -3 -14 -11 -26 -17 -26 -15 0 -69 -52 -63 -61 2 -4 -7 -16 -21 -27
-14 -11 -21 -22 -15 -24 6 -2 4 -20 -5 -50 -7 -26 -10 -50 -6 -52 4 -3 9 -31
10 -63 1 -31 5 -60 10 -63 5 -3 12 -31 15 -63 7 -51 10 -57 26 -52 15 5 21 0
26 -20 6 -24 65 -65 93 -65 5 0 39 -20 75 -45 76 -52 136 -62 156 -25 11 20
60 29 60 10 0 -5 -6 -10 -14 -10 -14 0 -51 -48 -43 -56 2 -2 30 -9 63 -15 76
-14 80 -17 55 -40 -25 -23 -26 -32 -6 -49 8 -7 15 -18 15 -25 0 -19 25 -36 36
-25 6 6 10 0 12 -16 2 -22 -1 -25 -18 -21 -25 6 -27 -18 -2 -29 9 -4 20 -7 24
-6 4 1 5 -6 2 -16 -5 -16 -5 -16 9 1 15 17 57 24 57 8 0 -9 -60 -37 -72 -33
-11 3 -10 -18 3 -117 13 -108 21 -124 60 -116 16 4 29 2 29 -3 0 -12 -30 -26
-47 -23 -7 1 -13 -7 -13 -19 0 -11 5 -20 11 -20 5 0 8 -4 4 -9 -3 -6 -22 -4
-47 5 -43 15 -81 19 -62 6 6 -4 17 -30 23 -59 10 -42 18 -53 42 -63 16 -7 27
-16 24 -20 -3 -5 1 -11 7 -13 7 -3 3 -6 -10 -6 -15 -1 -21 3 -16 11 5 8 2 9
-10 5 -10 -4 -19 -7 -22 -7 -2 0 -2 -6 0 -12 3 -7 7 -26 10 -41 4 -15 10 -26
14 -23 4 2 7 -12 8 -32 1 -21 3 -74 4 -119 5 -115 -8 -123 -25 -16 -4 24 -11
45 -16 49 -5 3 -9 14 -9 25 0 11 -5 17 -10 14 -6 -3 -10 0 -10 8 0 12 -7 13
-37 5 -21 -5 -51 -10 -66 -11 l-28 -2 6 -100 c3 -55 8 -142 11 -193 3 -50 4
-92 1 -92 -15 0 -29 130 -32 293 -4 187 -14 271 -36 320 -10 23 -10 32 0 49 7
11 10 23 6 26 -3 4 -10 0 -15 -8 -8 -13 -10 -12 -10 3 0 9 -5 17 -11 17 -19 0
-4 23 22 32 23 8 23 7 5 -7 -29 -22 -17 -25 44 -9 68 18 102 20 160 10 l45 -7
-40 19 c-50 23 -99 36 -91 24 7 -12 -86 -23 -98 -12 -5 5 -21 6 -36 3 -27 -5
-28 -3 -32 43 -3 27 -1 56 3 64 6 11 8 10 9 -7 0 -13 5 -23 11 -23 6 0 8 7 5
16 -15 39 -17 64 -6 81 9 15 10 12 5 -17 -5 -26 -4 -31 4 -20 6 8 11 24 12 35
l0 20 9 -20 9 -20 1 20 c1 14 3 16 7 6 3 -8 -1 -19 -9 -25 -14 -11 -32 -46
-23 -46 3 0 19 15 36 32 l31 33 -23 18 c-18 14 -20 20 -10 26 10 7 10 10 1 16
-7 4 -16 1 -21 -6 -5 -8 -9 -10 -9 -5 0 5 -9 -1 -19 -13 -19 -22 -19 -22 -16
41 1 35 6 72 10 83 4 11 -2 6 -14 -11 -11 -16 -22 -41 -24 -54 -5 -28 -22 -37
-30 -15 -4 8 -3 15 1 15 4 0 8 14 9 31 1 17 10 38 20 46 17 14 17 14 0 9 -10
-3 -27 -6 -37 -6 -10 0 -25 -6 -32 -14 -8 -7 -24 -17 -36 -20 -13 -4 -22 -16
-22 -27 0 -10 -6 -19 -14 -19 -9 0 -12 -7 -9 -20 8 -32 -23 -60 -58 -53 -24 5
-30 1 -39 -21 -5 -15 -10 -43 -10 -62 0 -19 -4 -34 -10 -34 -5 0 -10 -6 -10
-13 0 -7 -12 -25 -26 -40 -14 -15 -23 -34 -20 -42 3 -8 1 -17 -5 -20 -5 -4 -7
-10 -4 -15 3 -4 1 -19 -4 -32 -10 -23 -10 -23 -10 5 -1 28 -18 37 -27 13 -3
-8 -19 -12 -45 -11 -49 3 -58 11 -33 30 18 14 18 14 -3 15 -13 0 -24 -3 -24
-7 -1 -5 -3 -46 -4 -93 -2 -47 -6 -92 -9 -100 -3 -8 -7 -31 -9 -50 -3 -30 -4
-29 -5 11 -2 34 -6 46 -18 46 -13 0 -15 -10 -11 -56 3 -31 3 -48 1 -38 -6 20
-20 22 -28 5 -3 -7 -3 4 0 24 3 20 1 77 -6 125 -7 48 -12 113 -12 143 0 39 -2
48 -7 30 -7 -22 -9 -18 -19 28 -16 69 -15 145 1 161 10 11 9 12 -2 6 -11 -6
-12 2 -7 46 4 30 10 67 13 83 3 18 1 26 -5 22 -10 -6 -31 -89 -35 -135 -1 -12
-7 -21 -14 -21 -7 0 -13 -7 -13 -15 0 -9 -9 -15 -22 -15 -20 0 -20 -1 -3 -20
17 -19 17 -19 -4 -15 -14 2 -21 -1 -21 -11 0 -8 -4 -12 -10 -9 -5 3 -10 1 -10
-5 0 -6 -4 -8 -10 -5 -7 4 -7 -3 0 -20 14 -37 13 -49 -9 -71 -11 -10 -40 -39
-65 -64 -26 -25 -46 -52 -46 -62 0 -22 -35 -55 -66 -61 -18 -3 -24 0 -24 14 0
17 13 39 132 216 26 40 48 75 48 78 0 3 13 19 30 35 16 16 30 33 30 37 0 4 11
21 25 37 28 32 31 46 14 63 -15 15 -1 35 20 28 12 -4 21 3 29 20 15 32 15 38
2 30 -17 -11 -11 12 11 36 l20 24 -6 -25 c-6 -24 -6 -24 19 5 51 59 68 85 52
79 -9 -3 -16 -10 -16 -16 0 -5 -4 -6 -10 -3 -5 3 -10 -1 -10 -10 0 -9 -12 -18
-30 -21 -16 -4 -30 -12 -30 -18 0 -6 -5 -18 -10 -26 -8 -13 -12 -12 -26 8 -11
16 -21 21 -36 16 -17 -5 -20 -3 -15 10 4 9 10 23 13 31 8 19 -10 19 -30 0 -14
-14 -13 -20 9 -60 l23 -45 -24 -6 c-13 -3 -31 -3 -40 0 -13 5 -14 9 -4 21 10
13 8 15 -13 15 -14 0 -28 -6 -31 -12 -5 -10 -7 -10 -12 0 -3 6 -14 12 -25 12
-10 0 -19 7 -19 15 0 8 -9 15 -20 15 -15 0 -20 -7 -20 -24 0 -29 -15 -42 -27
-23 -9 16 -104 9 -110 -9 -2 -6 10 -8 32 -6 42 5 46 -10 8 -35 -19 -13 -28
-14 -30 -6 -3 9 -12 8 -31 -5 -34 -22 -98 -26 -106 -5 -4 8 -13 13 -21 9 -8
-3 -17 -1 -20 4 -4 6 -10 10 -16 10 -5 0 0 -9 11 -20 23 -23 26 -42 6 -34 -8
3 -17 0 -22 -7 -4 -7 -2 -15 4 -17 15 -5 16 -39 1 -48 -6 -3 -15 -1 -19 6 -5
7 -10 8 -14 2 -3 -5 -26 -13 -52 -17 l-46 -6 4 -52 c1 -29 7 -55 12 -58 4 -4
3 -16 -3 -28 -8 -14 -11 -106 -11 -286 1 -254 2 -266 20 -260 10 3 21 1 25 -5
4 -7 -2 -14 -14 -17 -11 -3 -18 -9 -15 -14 3 -5 1 -9 -5 -9 -7 0 -10 -184 -11
-545 l0 -545 30 0 c18 0 29 -4 25 -10 -3 -6 -17 -7 -30 -4 l-24 6 0 -252 c-1
-197 2 -250 12 -244 9 5 9 4 0 -7 -10 -10 -13 -77 -13 -266 l0 -253 655 0
c617 0 655 1 653 18 -3 39 5 56 11 22 l6 -35 256 -3 256 -2 -4 57 c-3 32 -9
83 -15 113 -6 30 -13 76 -15 103 -3 26 -9 47 -14 47 -5 0 -9 10 -10 23 0 12
-3 17 -6 10 -3 -9 -10 -7 -25 7 -11 10 -38 22 -60 25 -30 5 -44 15 -61 41 -27
41 -36 42 -71 7 -22 -21 -31 -25 -44 -16 -9 5 -15 12 -13 14 2 2 -1 15 -8 28
-8 14 -9 21 -2 17 7 -5 11 3 11 19 0 14 4 24 8 21 4 -2 18 8 30 24 13 16 38
32 55 35 18 4 37 11 42 15 6 5 39 10 74 12 l64 3 23 -100 c28 -117 42 -216 45
-317 2 -64 16 -140 18 -98 1 12 3 13 10 1 5 -8 3 -27 -5 -47 -8 -18 -14 -36
-14 -39 0 -3 108 -5 239 -5 182 0 241 3 244 13 4 10 6 10 6 0 1 -10 30 -13
112 -13 71 0 108 4 104 10 -3 6 3 10 14 10 11 0 23 -4 26 -10 3 -5 17 -10 31
-10 17 0 24 6 24 19 0 10 7 24 15 31 12 10 18 7 32 -19 l18 -31 268 0 c188 0
266 3 262 11 -4 6 -13 8 -20 5 -17 -6 -36 16 -27 31 4 7 16 12 27 12 11 0 37
4 59 9 40 11 66 7 66 -10 0 -6 -8 -4 -17 3 -15 13 -15 12 -6 -5 8 -15 7 -23
-4 -34 -13 -13 -18 -12 -43 6 -15 12 -30 18 -34 15 -3 -3 10 -14 29 -24 43
-23 210 -28 218 -6 4 9 6 9 6 0 1 -18 207 -18 215 0 5 9 7 9 12 0 4 -10 105
-13 440 -13 l434 1 0 1560 c0 1060 -3 1558 -10 1554 -6 -4 -8 -11 -5 -16 4 -5
1 -9 -6 -9 -8 0 -8 -4 1 -15 9 -10 9 -15 1 -15 -6 0 -11 -8 -11 -17 0 -15 -3
-14 -18 5 -12 16 -23 21 -36 16 -16 -6 -17 -4 -7 14 15 28 14 31 -9 25 -17 -5
-20 0 -20 32 0 33 2 36 23 31 14 -3 13 -1 -6 6 -17 7 -26 17 -22 26 2 7 0 10
-5 7 -15 -9 -12 47 4 67 7 10 17 14 21 10 4 -4 3 3 -4 15 -16 31 -14 38 14 53
21 11 24 19 21 54 -3 33 -8 42 -25 44 -12 2 -20 9 -18 15 3 7 9 11 14 10 16
-3 11 31 -6 45 -9 8 -10 11 -3 7 19 -10 54 5 48 21 -3 8 -1 14 3 14 5 0 14 14
20 30 11 33 27 39 34 13 3 -10 5 210 6 490 l1 507 -364 0 c-314 0 -365 -2
-370 -15z m-347 -334 c-15 -5 -22 6 -14 19 6 9 10 9 16 -1 5 -8 4 -15 -2 -18z
m11 -51 c0 -5 -6 -7 -14 -4 -26 10 -27 -27 -1 -53 22 -23 26 -24 40 -9 33 32
63 5 43 -39 -8 -18 -8 -18 -4 3 6 33 -41 31 -54 -3 -5 -14 -12 -25 -14 -25 -3
0 -3 7 0 15 5 11 2 14 -12 9 -18 -6 -18 -6 0 8 15 12 16 17 6 23 -9 5 -15 4
-18 -3 -2 -7 -8 -12 -13 -12 -4 0 -6 7 -2 15 3 9 -2 21 -11 28 -16 11 -15 14
4 35 21 22 50 30 50 12z m-186 -62 c8 -31 -11 -48 -28 -25 -7 9 -25 17 -40 17
-27 0 -36 14 -13 23 6 3 26 6 43 6 25 1 33 -4 38 -21z m737 -68 c5 -3 4 -12
-1 -20 -6 -8 -10 -10 -10 -4 0 5 -9 20 -21 32 -11 12 -17 27 -13 33 3 6 12 1
22 -13 9 -13 19 -25 23 -28z m-506 20 c3 -5 1 -10 -4 -10 -6 0 -11 5 -11 10 0
6 2 10 4 10 3 0 8 -4 11 -10z m-115 -19 c0 -6 -4 -13 -10 -16 -5 -3 -10 1 -10
9 0 9 5 16 10 16 6 0 10 -4 10 -9z m190 -11 c0 -11 -8 -24 -17 -27 -10 -4 -24
-13 -32 -20 -7 -8 -16 -12 -18 -9 -3 3 2 12 10 21 9 8 14 22 11 30 -4 8 -1 15
5 15 6 0 11 -8 12 -17 0 -14 2 -13 9 5 12 27 20 28 20 2z m-90 0 c0 -5 -2 -10
-4 -10 -3 0 -8 5 -11 10 -3 6 -1 10 4 10 6 0 11 -4 11 -10z m-80 -22 c0 -7 -7
-22 -15 -32 -12 -16 -15 -17 -15 -4 0 24 11 48 21 48 5 0 9 -6 9 -12z m526
-44 c-19 -18 -20 -14 -4 23 9 22 12 24 15 11 3 -10 -3 -25 -11 -34z m-149 -14
c-1 -11 -7 -20 -13 -20 -7 0 -10 8 -7 20 3 11 9 20 14 20 4 0 7 -9 6 -20z
m-547 0 c24 -8 24 -8 -7 -9 -17 -1 -35 -5 -38 -11 -3 -5 -10 -10 -16 -10 -5 0
-4 9 3 20 14 21 19 22 58 10z m794 -18 c-6 -4 -14 -17 -18 -29 -4 -13 -12 -23
-17 -23 -5 0 -3 14 6 30 9 17 21 30 28 30 8 0 9 -2 1 -8z m-659 -31 c-3 -6
-14 -11 -23 -11 -15 1 -15 2 2 15 21 16 32 13 21 -4z m-180 -26 c1 -22 -4 -35
-12 -35 -7 0 -13 -4 -13 -10 0 -5 -9 -10 -20 -10 -11 0 -20 5 -20 10 0 6 4 10
8 10 5 0 17 16 28 35 10 19 21 35 24 35 3 0 5 -16 5 -35z m325 5 c0 -5 -4 -10
-9 -10 -6 0 -13 5 -16 10 -3 6 1 10 9 10 9 0 16 -4 16 -10z m670 0 c0 -5 -4
-10 -10 -10 -5 0 -10 5 -10 10 0 6 5 10 10 10 6 0 10 -4 10 -10z m-2583 -32
c-3 -8 -6 -5 -6 6 -1 11 2 17 5 13 3 -3 4 -12 1 -19z m2367 -19 c-13 -15 -14
-19 -3 -19 8 0 25 -9 39 -20 24 -18 24 -19 6 -33 -14 -10 -17 -21 -12 -40 8
-33 24 -35 36 -3 5 13 14 27 21 32 9 5 10 2 4 -12 -12 -25 -9 -104 4 -117 20
-20 25 5 8 34 -26 46 -22 77 6 46 29 -32 34 -52 20 -74 -13 -19 -12 -23 7 -36
l22 -15 -21 -7 c-21 -6 -30 -35 -11 -35 6 0 10 5 10 10 0 6 14 10 31 10 16 0
28 3 26 8 -3 4 6 7 19 7 28 0 30 -11 7 -37 -9 -10 -13 -21 -10 -25 4 -3 16 6
28 21 17 21 24 24 35 15 8 -6 11 -15 8 -20 -3 -5 6 -13 19 -18 21 -8 24 -15
21 -43 -2 -18 -6 -38 -9 -45 -6 -18 12 -25 35 -13 27 14 27 -7 -1 -54 -16 -28
-18 -39 -9 -55 12 -24 45 -29 37 -7 -4 10 -1 13 9 9 9 -3 14 1 14 14 0 11 7
20 15 20 8 0 15 -9 15 -19 0 -10 -6 -17 -12 -16 -7 2 -17 -12 -23 -30 -6 -22
-14 -31 -23 -27 -10 3 -12 0 -8 -10 3 -9 0 -15 -10 -15 -8 0 -13 -4 -10 -9 3
-5 16 -7 27 -4 16 4 20 2 17 -8 -2 -8 -17 -15 -31 -17 -26 -3 -27 -3 -23 51
l4 55 -34 7 c-31 5 -34 8 -28 32 5 18 3 24 -4 19 -13 -8 -53 29 -44 40 4 5 0
3 -9 -4 -14 -11 -18 -9 -23 12 -6 23 -36 40 -65 36 -7 -1 -11 5 -9 12 7 20 86
19 91 -1 2 -9 4 -1 4 17 0 18 -3 28 -7 22 -5 -9 -9 -9 -14 -1 -4 6 -5 15 -2
19 3 4 -11 9 -30 9 -25 1 -34 -3 -34 -15 0 -12 -3 -13 -12 -4 -17 17 -25 15
-31 -7 -3 -14 -1 -18 9 -14 8 3 14 -1 14 -10 0 -9 3 -23 7 -32 5 -14 2 -16
-17 -10 -17 5 -21 4 -17 -6 2 -8 10 -13 16 -11 13 3 14 -8 1 -28 -6 -10 -10
-11 -10 -2 0 6 -7 12 -15 12 -8 0 -15 6 -16 13 -2 30 4 83 11 98 5 8 5 41 1
72 -4 31 -4 60 1 65 14 14 -9 63 -27 56 -10 -4 -15 0 -15 15 0 14 -5 19 -15
15 -18 -7 -20 7 -3 24 9 9 8 15 -8 26 -17 13 -19 13 -22 -10 -4 -30 -14 -31
-27 -1 -13 28 4 85 27 92 9 3 19 13 23 23 5 12 9 13 12 4 3 -7 -3 -22 -13 -33z
m166 5 c0 -35 -15 -30 -16 6 -1 16 3 27 7 24 5 -3 9 -16 9 -30z m-100 11 c0
-12 -19 -12 -23 0 -4 9 -1 12 9 8 7 -3 14 -7 14 -8z m-670 -37 c0 -7 -12 -21
-25 -31 -24 -17 -24 -17 -18 0 6 15 31 41 41 43 1 0 2 -6 2 -12z m-237 -19 c4
-16 3 -18 -8 -9 -9 8 -14 5 -18 -11 -3 -12 -10 -18 -16 -14 -19 11 -12 35 12
45 12 5 23 9 23 9 1 1 4 -8 7 -20z m76 -22 c-9 -7 -20 -23 -24 -36 -6 -20 -9
-22 -16 -8 -12 20 -2 45 19 50 31 8 37 6 21 -6z m377 -42 c-9 -9 -16 -13 -16
-8 0 12 22 34 28 28 2 -2 -3 -11 -12 -20z m775 -18 c-13 -13 -26 -3 -16 12 3
6 11 8 17 5 6 -4 6 -10 -1 -17z m-1296 -27 c4 -6 13 -5 25 2 21 13 36 6 25
-11 -3 -6 -19 -11 -35 -11 -15 0 -31 -6 -33 -12 -3 -7 -6 -1 -6 15 -1 27 12
36 24 17z m1285 1 c0 -15 -12 -41 -19 -41 -3 0 -7 11 -7 25 -1 15 3 25 12 25
8 0 14 -4 14 -9z m-1066 -36 c-4 -8 -11 -15 -16 -15 -6 0 -5 6 2 15 7 8 14 15
16 15 2 0 1 -7 -2 -15z m-594 -5 c0 -5 -9 -10 -21 -10 -11 0 -17 5 -14 10 3 6
13 10 21 10 8 0 14 -4 14 -10z m880 0 c0 -5 -7 -10 -16 -10 -8 0 -12 5 -9 10
3 6 10 10 16 10 5 0 9 -4 9 -10z m720 6 c0 -2 -8 -10 -17 -17 -16 -13 -17 -12
-4 4 13 16 21 21 21 13z m40 -46 c0 -11 -7 -20 -15 -20 -8 0 -15 -4 -15 -10 0
-5 5 -10 10 -10 6 0 10 -4 10 -10 0 -12 -10 -13 -28 -1 -12 7 -11 14 2 40 19
35 36 41 36 11z m-1295 -5 c0 -5 -10 -11 -22 -13 -16 -2 -23 2 -23 13 0 11 7
15 23 13 12 -2 22 -7 22 -13z m1445 -15 c0 -5 -4 -10 -9 -10 -6 0 -13 5 -16
10 -3 6 1 10 9 10 9 0 16 -4 16 -10z m-2935 -10 c3 -5 2 -10 -4 -10 -5 0 -13
5 -16 10 -3 6 -2 10 4 10 5 0 13 -4 16 -10z m949 -19 c3 -5 -3 -11 -15 -14
-16 -4 -18 -3 -8 9 13 16 16 17 23 5z m986 5 c0 -2 -7 -6 -15 -10 -8 -3 -15
-1 -15 4 0 6 7 10 15 10 8 0 15 -2 15 -4z m-530 -21 c10 -12 10 -15 -4 -15 -9
0 -16 7 -16 15 0 8 2 15 4 15 2 0 9 -7 16 -15z m193 -13 c-3 -12 -9 -19 -14
-16 -5 3 -3 14 3 24 15 24 19 21 11 -8z m-697 -1 c-3 -5 -19 -11 -35 -13 -21
-3 -28 -1 -24 9 3 7 18 13 35 13 16 0 27 -4 24 -9z m204 -11 c0 -5 -5 -10 -11
-10 -5 0 -7 5 -4 10 3 6 8 10 11 10 2 0 4 -4 4 -10z m300 -19 c0 -12 -20 -25
-27 -18 -7 7 6 27 18 27 5 0 9 -4 9 -9z m-540 -11 c0 -5 -5 -10 -11 -10 -5 0
-7 5 -4 10 3 6 8 10 11 10 2 0 4 -4 4 -10z m71 -30 c25 0 17 -16 -11 -23 -14
-4 -24 1 -31 15 -10 18 -9 20 6 15 9 -4 26 -7 36 -7z m972 -19 c-5 -20 -33
-38 -33 -21 0 6 5 10 10 10 6 0 10 7 10 15 0 8 4 15 9 15 5 0 7 -9 4 -19z
m-1923 -7 c0 -8 -5 -12 -10 -9 -6 4 -8 11 -5 16 9 14 15 11 15 -7z m800 6 c0
-5 -7 -10 -16 -10 -8 0 -12 5 -9 10 3 6 10 10 16 10 5 0 9 -4 9 -10z m80 -29
c0 -5 -10 -11 -22 -14 -13 -2 -31 -8 -40 -12 -13 -5 -18 -3 -18 8 0 8 6 18 13
20 21 9 67 7 67 -2z m-115 -11 c-3 -5 -10 -10 -16 -10 -5 0 -9 5 -9 10 0 6 7
10 16 10 8 0 12 -4 9 -10z m692 -5 c3 -10 -42 -35 -64 -35 -14 0 -18 32 -6 44
10 10 66 3 70 -9z m-687 -19 c0 -3 -4 -8 -10 -11 -5 -3 -10 -1 -10 4 0 6 5 11
10 11 6 0 10 -2 10 -4z m50 -26 c0 -5 -4 -10 -10 -10 -5 0 -10 5 -10 10 0 6 5
10 10 10 6 0 10 -4 10 -10z m1140 0 c0 -5 -10 -10 -22 -10 -19 0 -20 2 -8 10
19 13 30 13 30 0z m-39 -43 c-10 -9 -11 -8 -5 6 3 10 9 15 12 12 3 -3 0 -11
-7 -18z m-1221 -52 c0 -8 -7 -15 -15 -15 -16 0 -20 12 -8 23 11 12 23 8 23 -8z
m115 5 c-4 -6 -1 -18 7 -27 11 -15 11 -16 -5 -10 -10 4 -34 7 -53 7 -22 0 -33
4 -29 11 4 5 19 7 35 4 20 -4 29 -2 33 9 4 9 9 16 12 16 4 0 3 -5 0 -10z
m-354 -23 c8 -7 18 -20 22 -31 4 -11 13 -16 22 -12 9 3 15 0 15 -8 0 -14 -27
-15 -48 -2 -8 5 -20 2 -30 -8 -22 -19 -47 -6 -40 22 7 25 -26 37 -43 16 -14
-17 -22 -12 -26 16 -3 18 3 20 55 20 31 0 64 -6 73 -13z m1369 -12 c0 -8 -4
-15 -10 -15 -5 0 -10 7 -10 15 0 8 5 15 10 15 6 0 10 -7 10 -15z m-770 -39 c0
-2 -7 -7 -16 -10 -8 -3 -12 -2 -9 4 6 10 25 14 25 6z m180 0 c0 -3 -4 -8 -10
-11 -5 -3 -10 -1 -10 4 0 6 5 11 10 11 6 0 10 -2 10 -4z m-550 -46 c-8 -5 -6
-9 6 -14 15 -6 14 -9 -10 -21 -33 -17 -66 -20 -66 -5 0 21 48 60 65 54 12 -5
13 -9 5 -14z m1148 -20 c-5 -17 -19 -35 -30 -41 -32 -17 -34 -1 -2 26 16 14
25 25 19 25 -8 0 13 19 22 20 1 0 -3 -14 -9 -30z m-1083 10 c-3 -5 -10 -10
-16 -10 -5 0 -9 5 -9 10 0 6 7 10 16 10 8 0 12 -4 9 -10z m-645 -20 c0 -5 -4
-10 -10 -10 -5 0 -10 5 -10 10 0 6 5 10 10 10 6 0 10 -4 10 -10z m682 -15 c0
-5 -5 -11 -11 -13 -6 -2 -11 4 -11 13 0 9 5 15 11 13 6 -2 11 -8 11 -13z
m1263 6 c3 -5 1 -12 -5 -16 -5 -3 -10 1 -10 9 0 18 6 21 15 7z m-747 -20 c22
-19 31 -61 12 -61 -5 0 -10 5 -10 11 0 11 -28 9 -60 -5 -8 -3 -21 -2 -29 3
-18 12 -5 50 22 61 32 13 39 11 65 -9z m-711 -30 c-7 -21 -16 -27 -38 -26 -34
0 -36 7 -12 38 11 16 25 22 39 19 19 -3 20 -7 11 -31z m382 2 c13 -10 10 -12
-21 -13 -20 0 -54 -10 -75 -22 l-38 -22 30 36 c32 39 77 63 84 44 2 -6 11 -16
20 -23z m1891 27 c0 -5 -2 -10 -4 -10 -3 0 -8 5 -11 10 -3 6 -1 10 4 10 6 0
11 -4 11 -10z m-1470 -15 c0 -8 -4 -15 -10 -15 -5 0 -10 7 -10 15 0 8 5 15 10
15 6 0 10 -7 10 -15z m-620 -15 c0 -5 -7 -10 -15 -10 -8 0 -15 5 -15 10 0 6 7
10 15 10 8 0 15 -4 15 -10z m345 1 c3 -5 1 -12 -5 -16 -5 -3 -10 1 -10 9 0 18
6 21 15 7z m675 -6 c0 -8 -9 -15 -20 -15 -17 0 -19 2 -8 15 17 19 28 19 28 0z
m170 0 c-7 -8 -17 -15 -22 -15 -6 0 -5 7 2 15 7 8 17 15 22 15 6 0 5 -7 -2
-15z m-1755 -35 c-5 -16 -2 -20 19 -20 16 0 26 -6 26 -15 0 -8 -8 -15 -18 -15
-11 0 -29 -9 -42 -20 -22 -19 -50 -27 -50 -14 0 3 11 15 25 26 14 11 25 26 25
34 0 20 -13 17 -30 -6 -8 -11 -20 -20 -26 -20 -7 0 -20 -7 -29 -16 -25 -25
-28 -10 -4 19 11 15 27 27 35 27 8 0 14 5 14 10 0 10 33 28 53 29 5 1 5 -8 2
-19z m930 0 c-3 -5 3 -13 12 -19 17 -10 17 -10 1 -11 -21 0 -24 -16 -5 -23 18
-6 -10 -37 -34 -37 -11 0 -19 -7 -19 -15 0 -8 5 -15 10 -15 6 0 10 -5 10 -12
0 -6 -3 -8 -7 -5 -4 4 -19 -5 -35 -20 -33 -32 -36 -22 -7 31 11 21 18 40 15
43 -2 3 -9 -5 -16 -16 -6 -13 -21 -21 -35 -21 -14 0 -25 -4 -25 -9 0 -6 -21
-11 -47 -13 -41 -3 -48 -6 -53 -28 -3 -15 -9 -20 -13 -14 -4 7 -2 26 4 43 10
29 12 30 55 24 34 -4 44 -2 44 8 0 18 52 79 67 79 23 0 63 23 63 37 0 8 5 11
10 8 6 -4 8 -10 5 -15z m850 10 c-3 -5 -10 -10 -16 -10 -5 0 -9 5 -9 10 0 6 7
10 16 10 8 0 12 -4 9 -10z m-1535 -24 c0 -2 -7 -6 -15 -10 -8 -3 -15 -1 -15 4
0 6 7 10 15 10 8 0 15 -2 15 -4z m-1517 -25 c-2 -6 2 -11 7 -11 11 0 14 -49 3
-51 -45 -6 -141 -4 -151 4 -18 14 -35 -12 -21 -29 7 -9 4 -14 -10 -19 -24 -7
-26 -16 -9 -33 9 -9 7 -12 -10 -12 -15 0 -22 6 -22 20 0 38 -117 38 -150 0 -8
-9 -25 -20 -38 -24 -22 -7 -22 -7 3 18 14 14 30 26 35 26 14 0 12 13 -2 29
-13 14 -9 14 52 -5 14 -5 20 -2 20 10 0 19 -3 18 38 7 20 -6 32 -6 32 0 0 5
10 9 22 9 12 0 30 8 41 17 18 17 19 17 28 0 7 -12 15 -14 27 -8 9 5 24 12 33
14 11 4 15 14 14 30 -3 22 0 24 29 22 17 -2 30 -8 29 -14z m1794 13 c-3 -3
-12 -4 -19 -1 -8 3 -5 6 6 6 11 1 17 -2 13 -5z m-1727 -28 c0 -3 -4 -8 -10
-11 -5 -3 -10 -1 -10 4 0 6 5 11 10 11 6 0 10 -2 10 -4z m1590 -21 c0 -8 -6
-15 -13 -15 -8 0 -19 -10 -26 -22 -11 -21 -11 -21 -5 7 8 39 44 64 44 30z
m340 5 c-19 -13 -30 -13 -30 0 0 6 10 10 23 10 18 0 19 -2 7 -10z m1010 0 c0
-5 -5 -10 -11 -10 -5 0 -7 5 -4 10 3 6 8 10 11 10 2 0 4 -4 4 -10z m-649 -40
c-13 -11 -11 -34 4 -50 20 -22 4 -35 -25 -20 -14 8 -20 8 -20 0 0 -7 -8 -9
-20 -5 -14 5 -20 2 -20 -10 0 -9 -7 -24 -16 -33 -16 -15 -17 -14 -12 15 l4 32
-28 -17 c-18 -10 -28 -25 -28 -39 0 -16 -6 -23 -20 -23 -11 0 -20 -4 -20 -9 0
-11 -31 -24 -39 -16 -3 3 1 10 9 16 10 6 -3 8 -40 4 -38 -4 -49 -3 -35 4 11 5
27 18 35 30 8 12 20 21 26 21 20 0 60 24 86 53 14 15 30 27 36 27 6 0 12 4 14
9 2 5 20 18 41 29 36 19 40 19 56 4 9 -9 15 -19 12 -22z m1116 33 c-9 -2 -14
-9 -11 -15 4 -7 2 -8 -5 -4 -15 10 -4 26 17 25 15 -1 15 -2 -1 -6z m-1257 -33
c0 -5 -4 -10 -9 -10 -6 0 -13 5 -16 10 -3 6 1 10 9 10 9 0 16 -4 16 -10z
m-975 -20 c-3 -5 -10 -10 -16 -10 -5 0 -9 5 -9 10 0 6 7 10 16 10 8 0 12 -4 9
-10z m2065 -4 c0 -3 -4 -8 -10 -11 -5 -3 -10 -1 -10 4 0 6 5 11 10 11 6 0 10
-2 10 -4z m-1703 -28 c-3 -8 -6 -5 -6 6 -1 11 2 17 5 13 3 -3 4 -12 1 -19z
m311 -19 c2 -17 0 -20 -6 -10 -6 7 -15 10 -21 7 -12 -8 -15 16 -4 28 12 12 28
0 31 -25z m107 -53 c-32 -14 -41 -13 -30 3 3 6 18 11 33 11 l27 -1 -30 -13z
m-2495 -6 c-8 -5 -24 -10 -35 -10 -17 0 -17 2 -5 10 8 5 24 10 35 10 17 0 17
-2 5 -10z m10 -30 c0 -5 -7 -10 -16 -10 -8 0 -12 5 -9 10 3 6 10 10 16 10 5 0
9 -4 9 -10z m2220 0 c13 0 17 -5 13 -21 -4 -14 -12 -19 -24 -16 -10 3 -24 -2
-30 -10 -10 -11 -14 -11 -20 -1 -7 10 -9 9 -9 -4 0 -10 -7 -18 -15 -18 -8 0
-15 -7 -15 -16 0 -14 -1 -14 -16 0 -20 21 -20 21 -18 -16 1 -18 -1 -23 -3 -10
-2 12 -8 22 -12 22 -5 0 -6 10 -4 23 5 24 68 71 83 62 5 -3 12 0 15 6 4 5 14
8 22 5 8 -3 23 -6 33 -6z m-2240 -40 c0 -5 -4 -10 -9 -10 -6 0 -13 5 -16 10
-3 6 1 10 9 10 9 0 16 -4 16 -10z m3690 -4 c0 -3 -4 -8 -10 -11 -5 -3 -10 -1
-10 4 0 6 5 11 10 11 6 0 10 -2 10 -4z m-1460 -10 c0 -3 -4 -8 -10 -11 -5 -3
-10 -1 -10 4 0 6 5 11 10 11 6 0 10 -2 10 -4z m395 -7 c4 -6 13 -8 21 -5 8 3
13 2 13 -2 -4 -23 4 -32 26 -32 14 0 25 -4 25 -10 0 -5 7 -10 16 -10 20 0 47
-27 40 -39 -4 -5 -2 -11 3 -13 5 -1 12 -16 16 -33 5 -25 4 -27 -5 -12 -6 9
-15 15 -21 12 -5 -4 -9 0 -9 7 0 20 -43 36 -63 24 -21 -14 -31 -2 -19 21 8 15
6 22 -8 31 -11 6 -26 9 -35 6 -8 -4 -22 -1 -29 5 -11 10 -16 8 -21 -8 -3 -12
-11 -21 -16 -21 -5 0 -9 -9 -9 -20 0 -22 -16 -27 -22 -8 -3 7 -10 8 -17 4 -10
-7 -10 -10 -1 -16 8 -5 -1 -12 -24 -20 -35 -11 -39 -10 -61 14 -13 14 -33 26
-45 26 -24 0 -26 15 -3 24 11 5 22 1 29 -9 11 -14 13 -14 28 0 18 18 12 39
-10 31 -7 -3 -16 -1 -19 5 -10 15 24 23 40 9 13 -10 19 -10 33 4 10 9 26 16
35 16 9 0 19 5 23 11 3 6 19 9 35 5 16 -3 29 -1 29 4 0 13 17 13 25 -1z m1135
-9 c0 -5 -4 -10 -9 -10 -5 0 -17 -3 -25 -6 -12 -5 -15 -2 -10 10 7 17 44 22
44 6z m-1410 -50 c0 -20 -15 -25 -44 -14 -28 11 -18 34 14 34 23 0 30 -4 30
-20z m-605 -20 c3 -5 -1 -10 -10 -10 -9 0 -13 5 -10 10 3 6 8 10 10 10 2 0 7
-4 10 -10z m50 -10 c-3 -5 -1 -10 4 -10 6 0 11 5 11 10 0 7 7 7 21 -1 24 -12
16 -25 -22 -34 -23 -6 -26 -4 -26 19 0 14 4 26 9 26 5 0 6 -4 3 -10z m535 -20
c-9 -17 -30 -28 -30 -16 0 16 15 36 26 36 12 0 12 -4 4 -20z m-590 6 c0 -2 -9
-6 -20 -9 -11 -3 -20 -1 -20 4 0 5 9 9 20 9 11 0 20 -2 20 -4z m-1600 -26 c0
-5 -7 -10 -16 -10 -8 0 -12 5 -9 10 3 6 10 10 16 10 5 0 9 -4 9 -10z m1960
-10 c0 -5 -2 -10 -4 -10 -3 0 -8 5 -11 10 -3 6 -1 10 4 10 6 0 11 -4 11 -10z
m734 2 c2 -4 -6 -18 -19 -30 l-24 -23 12 31 c11 30 21 37 31 22z m-285 -13
c42 -15 41 -34 -1 -24 -18 4 -39 7 -45 8 -14 0 -17 10 -6 20 9 9 15 9 52 -4z
m-299 -18 c0 -5 -7 -12 -16 -15 -14 -5 -15 -4 -4 9 14 17 20 19 20 6z m1364
-10 c3 -5 14 -8 24 -6 9 1 11 0 5 -2 -7 -3 -13 -10 -13 -16 0 -7 -5 -4 -11 7
-9 14 -13 15 -19 6 -6 -10 -13 -9 -31 4 l-23 16 31 0 c18 0 34 -4 37 -9z
m-1994 -21 c-24 -15 -37 -11 -16 5 11 8 22 12 25 9 3 -3 -1 -9 -9 -14z m670
11 c0 -5 -7 -14 -15 -21 -12 -10 -15 -10 -15 2 0 8 3 18 7 21 9 10 23 9 23 -2z
m45 -1 c3 -5 -1 -10 -9 -10 -9 0 -16 5 -16 10 0 6 4 10 9 10 6 0 13 -4 16 -10z
m175 -3 c-27 -15 -36 -14 -25 2 3 6 16 11 28 11 21 0 21 -1 -3 -13z m-329 -63
c-20 -6 -37 -18 -39 -28 -4 -20 -22 -11 -22 12 1 20 46 56 59 47 5 -3 13 0 17
7 5 8 10 6 14 -8 6 -16 1 -21 -29 -30z m389 42 c0 -3 -4 -8 -10 -11 -5 -3 -10
-1 -10 4 0 6 5 11 10 11 6 0 10 -2 10 -4z m-2365 -32 c-23 -17 -32 -10 -15 11
7 8 17 12 23 8 6 -4 3 -11 -8 -19z m-175 12 c0 -3 -4 -8 -10 -11 -5 -3 -10 -1
-10 4 0 6 5 11 10 11 6 0 10 -2 10 -4z m97 -12 c3 -9 1 -19 -4 -23 -6 -3 -13
-13 -16 -21 -4 -10 -6 -8 -6 7 -1 12 -4 28 -7 37 -4 11 -1 16 10 16 9 0 19 -7
23 -16z m2268 6 c-3 -5 -13 -10 -21 -10 -8 0 -12 5 -9 10 3 6 13 10 21 10 8 0
12 -4 9 -10z m-2225 -10 c0 -5 -2 -10 -4 -10 -3 0 -8 5 -11 10 -3 6 -1 10 4
10 6 0 11 -4 11 -10z m723 -3 c10 -4 15 -12 11 -18 -4 -8 -9 -7 -15 2 -6 10
-9 8 -9 -8 0 -12 -4 -24 -9 -27 -5 -4 -13 -30 -17 -59 -4 -28 -9 -55 -10 -59
-1 -5 -2 -18 -3 -30 -1 -25 -17 -55 -25 -48 -2 3 4 39 15 80 10 41 19 92 19
112 0 40 9 70 19 64 3 -1 14 -6 24 -9z m1580 2 c-8 -8 -16 -8 -30 0 -16 9 -14
10 12 11 21 0 26 -3 18 -11z m-1833 -139 c23 -69 47 -129 53 -135 18 -15 60
-111 55 -125 -4 -14 -68 66 -68 86 0 6 -7 14 -15 18 -8 3 -15 16 -15 30 0 14
-4 28 -10 31 -5 3 -10 17 -10 31 0 14 -4 22 -10 19 -5 -3 -10 3 -10 14 0 11
-4 23 -10 26 -5 3 -8 19 -6 35 2 17 0 48 -4 71 -13 70 7 29 50 -101z m1095
131 c-11 -10 -32 -15 -55 -11 -8 1 -1 6 15 10 44 11 50 11 40 1z m355 -1 c-13
-8 -12 -10 3 -10 11 0 15 -5 11 -11 -3 -6 -16 -8 -27 -5 -12 3 -26 1 -31 -3
-17 -13 -76 -22 -76 -11 0 6 8 10 19 10 10 0 21 9 24 20 4 16 13 20 49 20 31
0 39 -3 28 -10z m1320 -9 c0 -11 2 -26 5 -33 4 -9 -2 -14 -15 -15 -17 -2 -20
2 -14 20 4 12 7 28 7 35 0 6 4 12 9 12 4 0 8 -9 8 -19z m-970 -18 c0 -11 4
-13 13 -6 34 27 44 22 43 -20 -1 -37 -5 -42 -26 -45 -14 -2 -34 4 -45 13 -19
16 -19 16 3 5 17 -9 27 -8 38 0 18 16 8 33 -14 21 -26 -13 -42 -2 -42 30 0 21
4 27 15 23 8 -4 15 -13 15 -21z m-2450 8 c0 -5 -7 -14 -15 -21 -12 -10 -15
-10 -15 2 0 8 3 18 7 21 9 10 23 9 23 -2z m1680 -11 c0 -5 -7 -10 -15 -10 -8
0 -15 5 -15 10 0 6 7 10 15 10 8 0 15 -4 15 -10z m-1600 -21 c0 -5 -7 -9 -15
-9 -15 0 -20 12 -9 23 8 8 24 -1 24 -14z m431 -1 c4 -6 4 -20 2 -32 -11 -48
-13 -50 -30 -25 -9 13 -23 28 -30 32 -23 14 3 49 30 41 12 -4 25 -11 28 -16z
m1389 2 c-19 -13 -30 -13 -30 0 0 6 10 10 23 10 18 0 19 -2 7 -10z m-1874 -26
c-15 -14 -36 -19 -36 -8 0 11 34 33 42 27 5 -2 2 -11 -6 -19z m3651 19 c-9 -2
-15 -8 -12 -13 3 -4 -4 -10 -15 -13 -16 -4 -17 -2 -7 14 6 10 21 18 32 18 17
-1 17 -2 2 -6z m-3411 -18 c-25 -19 -37 -19 -30 0 4 8 16 15 28 15 21 -1 21
-1 2 -15z m2104 6 c0 -5 -10 -13 -22 -17 -13 -4 -28 -14 -35 -23 -15 -21 -22
-12 -16 22 5 23 10 27 39 27 19 0 34 -4 34 -9z m-2192 -23 c-4 -30 -48 -39
-48 -10 0 24 8 32 32 32 14 0 19 -6 16 -22z m259 -10 c-3 -8 -6 -5 -6 6 -1 11
2 17 5 13 3 -3 4 -12 1 -19z m460 -20 c-3 -8 -6 -5 -6 6 -1 11 2 17 5 13 3 -3
4 -12 1 -19z m863 13 c0 -5 -11 -11 -25 -13 -14 -3 -25 -2 -25 3 0 4 10 10 23
12 12 2 23 5 25 6 1 0 2 -3 2 -8z m1902 -13 c-9 -9 -15 -9 -24 0 -9 9 -7 12
12 12 19 0 21 -3 12 -12z m-2263 -48 l-1 -25 -8 25 c-4 14 -8 32 -9 40 -1 13
0 13 9 0 5 -8 9 -26 9 -40z m-601 -27 l-1 -68 -6 55 c-6 52 -4 80 5 80 2 0 3
-30 2 -67z m1501 42 c2 -14 -2 -17 -19 -12 -12 3 -33 2 -46 -3 -18 -7 -24 -6
-24 5 0 14 54 36 75 31 6 -2 12 -11 14 -21z m52 15 c10 -6 19 -16 19 -22 0 -7
-5 -6 -15 2 -12 10 -15 10 -15 0 0 -11 -37 -50 -47 -50 -6 0 16 38 27 45 5 3
7 12 3 20 -6 18 1 19 28 5z m154 0 c3 -5 -3 -10 -14 -10 -11 0 -23 -5 -26 -10
-4 -6 -11 -7 -17 -4 -7 5 -4 12 7 21 22 15 41 17 50 3z m1075 0 c0 -5 -4 -10
-9 -10 -6 0 -13 5 -16 10 -3 6 1 10 9 10 9 0 16 -4 16 -10z m-2979 -23 c-10
-9 -11 -8 -5 6 3 10 9 15 12 12 3 -3 0 -11 -7 -18z m285 -43 c-4 -18 -10 -36
-15 -38 -5 -3 -5 14 0 37 4 23 9 49 10 57 1 10 3 9 6 -3 3 -11 2 -34 -1 -53z
m1757 46 c-10 -11 -18 -20 -19 -20 -1 0 -4 9 -7 20 -4 16 0 20 19 20 23 0 23
-1 7 -20z m-2553 -6 c0 -14 -3 -14 -15 -4 -8 7 -15 14 -15 16 0 2 7 4 15 4 8
0 15 -7 15 -16z m94 -10 c3 -8 2 -12 -3 -9 -6 3 -14 -2 -19 -11 -7 -12 -11
-13 -16 -5 -8 12 10 41 24 41 4 0 11 -7 14 -16z m2341 6 c4 -6 -6 -10 -22 -9
-25 0 -26 1 -8 9 11 5 21 9 22 9 1 1 5 -3 8 -9z m-838 -32 c-3 -8 -6 -5 -6 6
-1 11 2 17 5 13 3 -3 4 -12 1 -19z m478 2 c-10 -11 -23 -20 -28 -20 -6 0 -2 9
8 20 10 11 23 20 28 20 6 0 2 -9 -8 -20z m-2112 -37 c-18 -7 -16 -33 2 -33 21
0 18 -11 -8 -37 l-23 -21 4 36 c5 51 9 62 24 61 10 0 10 -2 1 -6z m41 -8 c-4
-8 -10 -12 -15 -9 -11 6 -2 24 11 24 5 0 7 -7 4 -15z m735 -42 c-4 -21 -7 -39
-5 -40 2 -2 21 3 44 11 30 11 43 12 49 4 3 -7 1 -14 -5 -16 -7 -2 -12 -10 -12
-18 0 -8 -7 -14 -15 -14 -9 0 -12 -6 -8 -16 5 -14 2 -16 -20 -10 -34 8 -37
-15 -4 -33 28 -15 168 -31 182 -21 6 4 21 4 34 -1 18 -7 21 -12 12 -23 -9 -11
-9 -15 1 -20 7 -3 4 -4 -7 -1 -15 4 -21 0 -22 -15 -1 -13 9 -25 33 -36 51 -24
34 -29 -23 -6 -26 11 -82 32 -123 47 -41 15 -79 32 -84 36 -15 14 -46 11 -41
-4 6 -14 94 -57 118 -57 8 0 25 -8 38 -18 13 -10 33 -22 43 -26 10 -3 16 -9
13 -13 -4 -3 -18 2 -31 11 -14 9 -37 16 -51 16 -14 0 -46 10 -70 21 -50 24
-68 20 -36 -7 11 -10 18 -21 15 -26 -3 -4 2 -5 11 -2 11 5 14 2 9 -10 -4 -11
3 -19 23 -28 43 -19 54 -48 17 -48 -9 0 -12 5 -8 12 5 7 3 8 -6 3 -8 -5 -17
-2 -24 7 -6 8 -19 17 -30 21 -14 6 -17 4 -12 -8 4 -12 2 -13 -13 -5 -30 15
-41 -9 -48 -104 -3 -48 -8 -84 -10 -82 -9 8 -8 146 0 149 4 1 10 34 13 72 4
49 2 66 -5 55 -17 -25 -23 -3 -6 24 22 33 45 121 45 174 0 38 13 82 24 82 2 0
0 -17 -5 -37z m1821 7 c0 -5 -7 -10 -15 -10 -8 0 -15 5 -15 10 0 6 7 10 15 10
8 0 15 -4 15 -10z m-80 -11 c0 -5 -5 -7 -11 -3 -7 4 -10 1 -7 -6 4 -12 -24
-50 -37 -50 -3 0 -5 10 -5 22 0 12 3 18 7 15 3 -4 12 2 20 13 15 22 33 27 33
9z m-2260 -29 c11 -7 6 -8 -17 -5 -18 2 -33 -1 -33 -6 0 -5 -4 -9 -10 -9 -5 0
-10 7 -10 15 0 17 46 20 70 5z m1330 -38 c0 -9 -5 -24 -10 -32 -7 -11 -10 -5
-10 23 0 23 4 36 10 32 6 -3 10 -14 10 -23z m653 -21 c-14 -12 -31 -17 -44
-14 -19 5 -18 7 12 18 49 18 57 17 32 -4z m-2139 -29 c-6 -4 -15 -22 -19 -39
-3 -18 -11 -33 -16 -33 -13 0 -11 14 3 28 10 10 8 14 -10 19 -21 5 -21 6 -5
19 10 7 27 13 38 14 12 0 16 -3 9 -8z m3543 -10 c-17 -19 -47 -25 -47 -11 0
10 31 28 49 29 11 0 11 -4 -2 -18z m218 -32 c3 -5 -1 -10 -10 -10 -9 0 -13 5
-10 10 3 6 8 10 10 10 2 0 7 -4 10 -10z m-3460 -10 c3 -5 15 -10 27 -10 17 0
18 -2 8 -15 -7 -8 -17 -15 -23 -15 -10 0 -36 30 -37 43 0 10 18 9 25 -3z
m1932 -33 c6 -4 14 -3 17 1 5 8 25 9 59 3 4 0 7 -6 7 -12 0 -6 -6 -9 -12 -6
-7 2 -18 -3 -25 -12 -8 -11 -12 -12 -13 -3 0 24 -19 11 -25 -18 -4 -17 -11
-27 -17 -24 -6 4 -6 10 1 17 19 19 12 37 -13 37 -14 0 -38 -13 -54 -30 -27
-27 -30 -28 -25 -7 11 45 66 75 100 54z m858 -7 c3 -5 0 -10 -9 -10 -8 0 -19
-12 -24 -27 -7 -18 -11 -22 -11 -10 -1 19 20 57 31 57 4 0 10 -4 13 -10z
m-2850 -10 c3 -5 1 -10 -4 -10 -6 0 -11 5 -11 10 0 6 2 10 4 10 3 0 8 -4 11
-10z m2369 -29 c-6 -6 -24 19 -24 34 1 6 7 1 15 -9 8 -11 12 -22 9 -25z m1126
9 c6 -11 8 -20 6 -20 -3 0 -10 9 -16 20 -6 11 -8 20 -6 20 3 0 10 -9 16 -20z
m-3292 -8 c5 -15 -20 -15 -83 2 l-50 13 64 -2 c40 0 66 -5 69 -13z m1611 -23
c-6 -3 5 -9 25 -13 52 -10 46 -43 -11 -60 -20 -6 -23 -4 -23 19 0 23 -4 26
-21 22 -15 -4 -19 -2 -15 9 3 9 -1 14 -14 14 -25 0 -15 29 13 39 23 9 64 -18
46 -30z m-595 -6 c-15 -15 -20 -93 -5 -93 4 0 6 -11 3 -25 -2 -14 1 -31 7 -39
19 -22 10 -62 -15 -64 -18 -1 -23 5 -28 40 -8 52 4 214 15 197 6 -10 10 -9 15
5 5 13 9 14 14 5 5 -7 2 -18 -6 -26z m1206 28 c0 -6 -4 -13 -10 -16 -5 -3 -10
1 -10 9 0 9 5 16 10 16 6 0 10 -4 10 -9z m881 -38 c24 6 27 -28 3 -37 -30 -11
-56 4 -50 27 3 12 6 31 7 42 0 15 3 14 11 -8 8 -21 15 -27 29 -24z m-1585 21
c-2 -6 0 -16 6 -22 6 -6 6 -12 -1 -16 -6 -4 -11 0 -11 8 0 23 -21 31 -32 12
-5 -9 -18 -16 -29 -16 -19 0 -19 1 3 24 23 24 72 32 64 10z m478 -19 c8 -8 19
-15 25 -15 6 0 11 -5 11 -11 0 -6 -9 -9 -20 -6 -17 4 -18 2 -9 -14 7 -14 6
-19 -3 -20 -10 0 -10 -2 0 -6 6 -2 12 -9 12 -14 0 -11 -45 -7 -56 4 -11 10
-44 -23 -44 -44 0 -11 14 -26 33 -35 17 -9 35 -21 39 -27 4 -7 12 -6 23 3 12
10 19 10 27 2 9 -9 15 -8 26 1 12 10 14 9 10 -3 -2 -8 -15 -16 -29 -18 -13 -2
-30 -11 -36 -20 -7 -9 -13 -11 -13 -5 0 23 -30 42 -60 38 -24 -3 -30 0 -30 16
0 24 -11 24 -33 -1 -17 -21 -37 -27 -37 -11 0 5 7 11 15 15 19 7 19 22 -1 30
-8 3 -12 2 -9 -4 3 -6 -1 -10 -10 -10 -8 0 -23 -9 -32 -20 -23 -27 -31 -25
-26 4 3 13 12 27 21 30 10 3 24 10 32 15 8 5 23 12 33 15 9 3 17 15 17 28 0
17 3 19 9 10 6 -11 14 -8 36 15 18 18 29 24 32 16 9 -24 38 -14 39 12 2 25
-19 35 -31 15 -4 -6 -11 -7 -17 -4 -5 4 -23 -3 -39 -15 -42 -31 -54 -16 -17
19 35 34 86 40 112 15z m1246 5 c0 -5 -7 -10 -15 -10 -8 0 -15 5 -15 10 0 6 7
10 15 10 8 0 15 -4 15 -10z m-2915 -14 c14 -8 22 -17 17 -20 -5 -3 -20 3 -32
14 -27 24 -23 25 15 6z m390 4 c3 -5 -3 -10 -14 -10 -12 0 -21 5 -21 10 0 6 6
10 14 10 8 0 18 -4 21 -10z m1015 6 c0 -3 -4 -8 -10 -11 -5 -3 -10 -1 -10 4 0
6 5 11 10 11 6 0 10 -2 10 -4z m1425 -16 c3 -5 1 -10 -4 -10 -6 0 -11 5 -11
10 0 6 2 10 4 10 3 0 8 -4 11 -10z m170 0 c3 -5 2 -10 -4 -10 -5 0 -13 5 -16
10 -3 6 -2 10 4 10 5 0 13 -4 16 -10z m-3285 -30 c0 -5 -4 -10 -10 -10 -5 0
-10 5 -10 10 0 6 5 10 10 10 6 0 10 -4 10 -10z m730 -5 c16 -19 40 -19 67 0
20 14 21 14 18 -23 -7 -72 -20 -107 -41 -110 -20 -3 -44 31 -44 63 0 8 -5 15
-10 15 -13 0 -29 41 -23 58 7 16 18 15 33 -3z m1765 -2 c17 -11 17 -13 3 -13
-11 0 -15 -5 -12 -15 5 -12 -3 -15 -40 -15 -25 0 -46 -4 -46 -10 0 -5 -9 -10
-20 -10 -11 0 -20 4 -20 10 0 5 -7 7 -15 4 -14 -6 -14 -8 0 -18 14 -10 12 -13
-15 -23 -16 -6 -30 -7 -30 -2 0 5 5 9 10 9 6 0 10 5 10 10 0 6 -11 8 -25 4
-19 -5 -25 -3 -23 7 2 8 -4 13 -14 13 -10 -1 -18 2 -18 7 0 5 5 9 10 9 6 0 10
8 11 18 0 13 2 12 9 -5 10 -26 13 -27 38 -14 9 6 34 13 54 16 21 3 37 9 37 13
-1 4 -1 11 0 15 2 12 74 5 96 -10z m-2408 -9 c17 -5 19 -9 10 -19 -7 -7 -18
-10 -24 -8 -7 3 -22 -5 -33 -18 -10 -13 -19 -19 -20 -12 0 27 14 43 39 44 22
1 21 3 -9 9 -27 6 -30 8 -10 9 14 0 35 -2 47 -5z m2148 -4 c3 -5 2 -10 -4 -10
-5 0 -13 5 -16 10 -3 6 -2 10 4 10 5 0 13 -4 16 -10z m-2245 -10 c0 -5 -7 -10
-15 -10 -8 0 -15 5 -15 10 0 6 7 10 15 10 8 0 15 -4 15 -10z m1520 -10 c0 -6
-8 -14 -17 -17 -10 -4 -21 -11 -25 -17 -4 -6 -8 0 -8 14 0 20 5 26 25 28 14 1
25 -3 25 -8z m-1990 -10 c0 -5 -4 -10 -10 -10 -5 0 -10 5 -10 10 0 6 5 10 10
10 6 0 10 -4 10 -10z m857 -6 c-3 -3 -12 -4 -19 -1 -8 3 -5 6 6 6 11 1 17 -2
13 -5z m1070 -26 c-3 -8 -6 -5 -6 6 -1 11 2 17 5 13 3 -3 4 -12 1 -19z m283 6
c11 -13 10 -16 -9 -21 -12 -3 -27 -17 -32 -30 -5 -13 -13 -22 -19 -18 -5 3 -6
14 0 28 4 12 11 30 14 40 7 21 29 22 46 1z m-1660 -2 c0 -4 -14 -16 -31 -26
-18 -11 -29 -14 -25 -8 3 6 0 13 -6 15 -7 3 -3 6 9 6 12 1 25 6 28 11 7 12 25
13 25 2z m2650 -2 c0 -5 -5 -10 -11 -10 -5 0 -7 -4 -4 -10 3 -5 2 -10 -4 -10
-5 0 -12 4 -16 10 -3 5 -13 7 -23 4 -14 -5 -14 -4 -2 4 8 6 17 9 21 6 4 -2 10
0 14 6 8 13 25 13 25 0z m-1145 -10 c3 -6 -2 -13 -12 -16 -10 -3 -26 -10 -35
-15 -14 -7 -18 -5 -18 9 0 10 3 22 7 25 10 11 51 8 58 -3z m1000 0 c3 -5 2
-10 -4 -10 -5 0 -13 5 -16 10 -3 6 -2 10 4 10 5 0 13 -4 16 -10z m-1240 -10
c-3 -5 -15 -10 -26 -10 -10 0 -19 5 -19 10 0 6 12 10 26 10 14 0 23 -4 19 -10z
m2104 -57 c-11 -13 -10 -17 6 -29 21 -16 16 -28 -9 -18 -18 7 -23 54 -5 54 6
0 8 9 4 23 -5 19 -5 20 5 4 9 -14 8 -22 -1 -34z m51 -3 c-6 -11 -13 -20 -16
-20 -2 0 0 9 6 20 6 11 13 20 16 20 2 0 0 -9 -6 -20z m40 5 c-10 -12 -10 -15
0 -15 17 0 4 -13 -15 -16 -15 -2 -13 7 8 34 5 6 12 12 14 12 3 0 0 -7 -7 -15z
m-1854 -28 c8 -4 14 -15 14 -22 0 -10 10 -15 30 -15 17 0 30 5 30 10 0 6 7 10
15 10 8 0 15 4 15 10 0 5 7 7 15 4 8 -4 15 -10 15 -15 0 -5 -7 -9 -15 -9 -8 0
-15 -5 -15 -11 0 -5 -4 -7 -10 -4 -5 3 -10 -1 -10 -10 0 -9 -5 -13 -11 -10 -6
4 -16 1 -22 -7 -7 -7 -11 -12 -10 -10 5 10 -59 54 -65 45 -13 -18 -42 -23 -42
-8 0 8 -7 15 -15 15 -8 0 -15 5 -15 11 0 6 9 8 20 4 11 -3 20 -2 20 4 0 5 8
17 17 27 14 13 18 14 22 3 2 -8 10 -18 17 -22z m474 -7 c-14 -11 -29 -20 -35
-20 -5 0 1 9 15 20 14 11 30 20 35 20 6 0 -1 -9 -15 -20z m205 0 c3 -5 1 -10
-4 -10 -6 0 -11 5 -11 10 0 6 2 10 4 10 3 0 8 -4 11 -10z m1035 0 c-20 -13
-33 -13 -25 0 3 6 14 10 23 10 15 0 15 -2 2 -10z m-3870 -20 c0 -5 -4 -10 -10
-10 -5 0 -10 5 -10 10 0 6 5 10 10 10 6 0 10 -4 10 -10z m3880 -4 c0 -2 -7 -7
-16 -10 -8 -3 -12 -2 -9 4 6 10 25 14 25 6z m108 -37 c17 -26 6 -24 -25 6 -23
20 -24 23 -7 19 11 -3 25 -14 32 -25z m-1394 6 c5 -13 2 -14 -17 -4 -32 17
-33 19 -10 19 12 0 23 -7 27 -15z m1176 11 c0 -3 -4 -8 -10 -11 -5 -3 -10 -1
-10 4 0 6 5 11 10 11 6 0 10 -2 10 -4z m-1960 -36 c0 -7 -13 -7 -38 -1 -2 1
-1 5 3 11 6 10 35 2 35 -10z m460 -10 c-18 -11 -22 -7 -14 14 5 13 10 14 18 6
8 -8 7 -13 -4 -20z m191 -6 c11 -14 10 -15 -7 -12 -12 1 -28 -3 -37 -11 -15
-12 -17 -11 -17 7 0 18 10 25 41 31 4 0 13 -6 20 -15z m-821 -4 c0 -5 -8 -10
-17 -10 -15 0 -16 2 -3 10 19 12 20 12 20 0z m1016 -5 c22 -11 31 -12 43 -2 9
6 5 -1 -9 -16 l-24 -28 -17 22 c-11 15 -22 20 -34 15 -15 -5 -16 -4 -5 9 15
18 12 18 46 0z m-826 -22 c0 -21 -3 -24 -9 -14 -5 8 -7 20 -4 28 8 21 13 15
13 -14z m-277 -10 c-8 -22 -24 -33 -36 -26 -6 3 1 14 14 24 30 23 30 23 22 2z
m-66 -15 c-3 -8 -6 -5 -6 6 -1 11 2 17 5 13 3 -3 4 -12 1 -19z m993 12 c22 -6
23 -8 6 -15 -11 -5 -21 -3 -26 5 -5 8 -13 9 -26 2 -28 -14 -84 -23 -84 -13 0
4 19 13 43 18 51 13 56 13 87 3z m-1360 -34 c-14 -14 -24 0 -16 21 6 15 8 15
16 3 6 -9 5 -19 0 -24z m1536 23 c9 -15 -15 -29 -51 -28 l-30 1 33 12 c18 6
30 15 26 19 -4 4 -2 7 4 7 6 0 14 -5 18 -11z m738 -5 c26 -10 -1 -34 -38 -34
l-31 0 25 20 c29 23 25 21 44 14z m423 0 c-3 -3 -12 -4 -19 -1 -8 3 -5 6 6 6
11 1 17 -2 13 -5z m-2149 -25 c-2 -6 -8 -10 -13 -10 -5 0 -11 4 -13 10 -2 6 4
11 13 11 9 0 15 -5 13 -11z m-1708 -27 c8 -1 32 -5 52 -9 20 -3 45 -14 54 -24
9 -11 24 -19 32 -19 8 0 27 -11 44 -25 16 -14 39 -25 52 -25 12 0 31 -7 43
-15 12 -9 28 -14 35 -13 8 2 14 -8 16 -23 2 -20 -2 -28 -18 -32 -12 -3 -19
-10 -15 -16 3 -6 3 -16 -1 -23 -5 -8 -10 -6 -15 8 -6 16 -8 15 -8 -8 -1 -24
-6 -27 -45 -33 -25 -4 -49 -4 -54 -1 -6 3 -21 2 -35 -3 -30 -12 -69 -3 -60 13
3 6 0 6 -8 -1 -17 -16 -30 -17 -26 -1 1 8 -18 15 -51 19 -29 4 -55 9 -56 10
-2 2 -7 19 -11 37 -6 31 -5 33 14 27 25 -8 27 1 5 22 -10 10 -13 24 -9 37 4
12 9 32 11 46 13 67 15 71 27 63 7 -4 19 -9 27 -11z m1157 -44 c-2 -13 -4 -3
-4 22 0 25 2 35 4 23 2 -13 2 -33 0 -45z m983 58 c0 -3 -4 -8 -10 -11 -5 -3
-10 -1 -10 4 0 6 5 11 10 11 6 0 10 -2 10 -4z m760 -6 c0 -5 -2 -10 -4 -10 -3
0 -8 5 -11 10 -3 6 -1 10 4 10 6 0 11 -4 11 -10z m-2966 -16 c9 -22 -3 -32
-14 -14 -12 19 -12 30 -1 30 5 0 12 -7 15 -16z m3001 6 c3 -5 1 -10 -4 -10 -6
0 -11 5 -11 10 0 6 2 10 4 10 3 0 8 -4 11 -10z m-372 -20 c4 -17 0 -20 -25
-20 -19 0 -28 4 -25 13 2 6 11 11 21 9 9 -2 16 2 16 8 0 17 7 11 13 -10z m57
10 c0 -5 -2 -10 -4 -10 -3 0 -8 5 -11 10 -3 6 -1 10 4 10 6 0 11 -4 11 -10z
m-1924 -78 c-11 -10 -15 4 -8 28 l7 25 3 -23 c2 -13 1 -26 -2 -30z m507 27
c-4 -13 -9 -17 -15 -11 -11 11 -3 32 12 32 4 0 6 -9 3 -21z m-28 -47 c4 9 13
14 21 11 17 -6 19 -43 3 -43 -8 0 -8 -5 1 -15 10 -13 9 -15 -10 -15 -15 0 -20
4 -17 15 4 8 2 17 -3 20 -5 3 -11 -3 -13 -12 -3 -10 -5 0 -5 22 0 30 1 35 8
20 7 -18 9 -18 15 -3z m1347 1 c24 -21 23 -36 -2 -28 -14 4 -20 2 -20 -9 0 -8
-9 -20 -20 -26 -11 -6 -20 -18 -20 -26 0 -8 -4 -12 -10 -9 -5 3 -10 -1 -10 -9
0 -9 -4 -16 -9 -16 -11 0 10 93 23 102 6 4 12 12 12 18 3 19 4 20 21 20 9 0
25 -7 35 -17z m-122 -23 c0 -5 -5 -10 -11 -10 -5 0 -7 5 -4 10 3 6 8 10 11 10
2 0 4 -4 4 -10z m310 -20 c0 -5 -2 -10 -4 -10 -3 0 -8 5 -11 10 -3 6 -1 10 4
10 6 0 11 -4 11 -10z m-10 -29 c0 -12 -20 -25 -27 -18 -7 7 6 27 18 27 5 0 9
-4 9 -9z m-2100 -35 c0 -11 -19 -15 -25 -6 -3 5 1 10 9 10 9 0 16 -2 16 -4z
m1460 -26 c0 -5 -5 -10 -11 -10 -5 0 -7 5 -4 10 3 6 8 10 11 10 2 0 4 -4 4
-10z m-2020 -41 c0 -5 -4 -9 -10 -9 -5 0 -10 7 -10 16 0 8 5 12 10 9 6 -3 10
-10 10 -16z m2795 1 c-3 -5 -10 -10 -16 -10 -5 0 -9 5 -9 10 0 6 7 10 16 10 8
0 12 -4 9 -10z m-2405 -14 c0 -2 -9 -6 -20 -9 -11 -3 -20 -1 -20 4 0 5 9 9 20
9 11 0 20 -2 20 -4z m298 -34 c2 -7 -3 -12 -12 -12 -9 0 -16 7 -16 16 0 17 22
14 28 -4z m-42 -8 c-3 -9 -6 -25 -7 -37 -1 -20 -2 -20 -8 3 -9 28 -4 50 11 50
6 0 7 -7 4 -16z m-617 -38 c-12 -10 -49 -16 -49 -7 0 16 34 31 44 21 5 -6 8
-11 5 -14z m-75 -45 c4 -5 -3 -7 -14 -4 -23 6 -26 13 -6 13 8 0 17 -4 20 -9z
m2408 -69 c-7 -2 -10 -8 -6 -13 3 -5 1 -9 -5 -9 -6 0 -7 -8 -4 -17 7 -17 6
-17 -10 -1 -17 16 -17 18 0 37 9 11 21 17 27 14 6 -4 6 -8 -2 -11z m-2382 -2
c0 -5 -7 -10 -16 -10 -8 0 -12 5 -9 10 3 6 10 10 16 10 5 0 9 -4 9 -10z m2460
-11 c0 -5 4 -7 10 -4 5 3 18 1 27 -4 15 -9 13 -10 -13 -11 -19 0 -34 6 -38 15
-3 8 -1 15 4 15 6 0 10 -5 10 -11z m-2587 -38 c-9 -12 -23 -21 -30 -21 -7 0
-13 -5 -13 -12 0 -6 -2 -9 -5 -6 -12 12 15 57 37 60 31 5 32 3 11 -21z m125
12 c-2 -10 -9 -18 -16 -18 -7 0 -23 -13 -36 -30 -21 -26 -25 -28 -31 -12 -8
20 -31 23 -38 5 -3 -8 -6 -6 -6 5 -1 9 3 17 7 17 5 0 22 11 38 25 35 30 87 35
82 8z m917 -265 c-5 -83 -11 -111 -30 -144 -13 -23 -22 -44 -19 -46 3 -3 -2
-8 -10 -11 -10 -4 -13 -1 -9 9 3 7 0 14 -7 14 -8 0 -11 -11 -8 -30 4 -24 2
-27 -9 -19 -20 17 -17 185 4 265 l17 64 39 0 39 0 -7 -102z m-1065 2 c0 -5 -4
-10 -10 -10 -5 0 -10 5 -10 10 0 6 5 10 10 10 6 0 10 -4 10 -10z m45 -69 c3
-5 1 -12 -5 -16 -5 -3 -10 1 -10 9 0 18 6 21 15 7z m265 -1 c0 -5 -5 -10 -11
-10 -5 0 -7 5 -4 10 3 6 8 10 11 10 2 0 4 -4 4 -10z m-130 -50 c0 -5 -4 -10
-10 -10 -5 0 -10 5 -10 10 0 6 5 10 10 10 6 0 10 -4 10 -10z m-123 -14 c-7
-19 12 -25 41 -15 15 6 22 5 23 -4 0 -6 5 -1 10 12 5 13 12 21 16 17 3 -3 1
-16 -6 -29 -13 -24 -71 -37 -71 -17 0 6 -4 9 -9 6 -5 -4 -11 0 -14 6 -4 14 2
38 10 38 3 0 3 -6 0 -14z m320 -56 c2 0 3 -13 3 -29 0 -25 -3 -28 -21 -24 -12
4 -25 0 -29 -8 -5 -7 -12 -11 -15 -7 -3 3 2 13 12 23 16 17 16 17 -6 10 -20
-6 -23 -4 -18 10 4 9 7 23 7 30 0 11 7 12 32 4 18 -5 34 -9 35 -9z m-87 -25
c0 -8 -2 -15 -4 -15 -2 0 -6 7 -10 15 -3 8 -1 15 4 15 6 0 10 -7 10 -15z
m-113 -27 c-3 -8 -6 -5 -6 6 -1 11 2 17 5 13 3 -3 4 -12 1 -19z m2093 8 c0
-11 -19 -15 -25 -6 -3 5 1 10 9 10 9 0 16 -2 16 -4z m-1600 -22 c0 -8 -5 -12
-10 -9 -6 4 -8 11 -5 16 9 14 15 11 15 -7z m175 6 c3 -5 2 -10 -4 -10 -5 0
-13 5 -16 10 -3 6 -2 10 4 10 5 0 13 -4 16 -10z m1365 -25 c-14 -7 -27 -11
-30 -9 -6 7 22 24 40 23 9 0 5 -6 -10 -14z m-1409 -26 c-5 -13 -10 -19 -10
-12 -1 15 10 45 15 40 3 -2 0 -15 -5 -28z m3053 7 c-6 -15 -24 -23 -24 -11 0
8 24 34 28 30 1 -1 0 -10 -4 -19z m-3027 -8 c-3 -8 -6 -5 -6 6 -1 11 2 17 5
13 3 -3 4 -12 1 -19z m2640 16 c-3 -3 -12 -4 -19 -1 -8 3 -5 6 6 6 11 1 17 -2
13 -5z m-3233 -19 c3 -8 1 -15 -4 -15 -6 0 -10 7 -10 15 0 8 2 15 4 15 2 0 6
-7 10 -15z m628 0 c0 -8 1 -19 2 -25 1 -5 -3 -11 -8 -12 -5 -2 -10 9 -12 25
-1 15 2 27 7 27 5 0 10 -7 11 -15z m2648 5 c0 -5 -5 -10 -11 -10 -5 0 -7 5 -4
10 3 6 8 10 11 10 2 0 4 -4 4 -10z m-2735 -49 c-3 -6 -11 -8 -17 -5 -6 4 -5 9
3 15 16 10 23 4 14 -10z m2675 9 c0 -5 -4 -10 -9 -10 -6 0 -13 5 -16 10 -3 6
1 10 9 10 9 0 16 -4 16 -10z m925 0 c3 -5 -1 -10 -10 -10 -9 0 -13 5 -10 10 3
6 8 10 10 10 2 0 7 -4 10 -10z m-4142 -15 c-3 -9 -8 -14 -10 -11 -3 3 -2 9 2
15 9 16 15 13 8 -4z m3677 -15 c0 -11 -4 -21 -9 -24 -13 -8 -34 21 -27 39 7
20 36 8 36 -15z m-90 4 c0 -14 -3 -14 -15 -4 -8 7 -15 14 -15 16 0 2 7 4 15 4
8 0 15 -7 15 -16z m470 8 c0 -5 -9 -17 -20 -27 -12 -11 -20 -13 -20 -6 0 6
-10 16 -22 21 -19 8 -18 9 10 4 20 -3 32 -2 32 5 0 6 5 11 10 11 6 0 10 -4 10
-8z m-3257 -98 c-7 -18 -39 -13 -52 8 -9 15 -8 18 9 18 22 0 26 10 9 27 -6 6
-8 17 -3 24 9 16 45 -57 37 -77z m2894 64 c-3 -8 -6 -5 -6 6 -1 11 2 17 5 13
3 -3 4 -12 1 -19z m63 13 c0 -5 -7 -11 -14 -14 -10 -4 -13 -1 -9 9 6 15 23 19
23 5z m-129 -19 c-7 -2 -18 1 -23 6 -8 8 -4 9 13 5 13 -4 18 -8 10 -11z
m-3227 -27 c4 -10 -1 -15 -15 -15 -17 0 -18 2 -7 15 16 18 15 18 22 0z m836
-5 c0 -5 -5 -10 -11 -10 -5 0 -7 5 -4 10 3 6 8 10 11 10 2 0 4 -4 4 -10z
m1502 -28 c4 -12 -1 -18 -13 -19 -24 -2 -36 17 -18 28 20 13 26 11 31 -9z
m830 -4 c-9 -9 -15 -9 -24 0 -9 9 -7 12 12 12 19 0 21 -3 12 -12z m111 -42 c5
-8 10 -6 16 4 6 8 13 11 17 7 11 -10 -12 -30 -35 -32 -11 -1 -24 8 -30 21 -9
20 -8 22 7 17 9 -4 20 -11 25 -17z m-790 -17 c-3 -10 -11 -19 -19 -19 -19 0
-13 36 7 37 12 1 15 -4 12 -18z m531 -30 c-3 -5 -10 -6 -16 -3 -7 5 -9 1 -5
-9 5 -13 1 -17 -18 -17 -13 0 -27 5 -30 10 -9 15 15 42 31 36 9 -3 11 1 7 12
-6 15 -4 15 15 -2 12 -10 19 -23 16 -27z m-840 -1 c-3 -4 -14 -3 -25 2 -11 6
-17 15 -14 20 4 6 14 5 25 -2 10 -7 16 -16 14 -20z m1279 19 c3 -7 -3 -13 -14
-14 -12 -1 -16 3 -12 13 6 18 19 18 26 1z m-1393 -12 c0 -8 -4 -15 -10 -15 -5
0 -10 7 -10 15 0 8 5 15 10 15 6 0 10 -7 10 -15z m50 0 c10 -12 10 -15 -4 -15
-9 0 -16 7 -16 15 0 8 2 15 4 15 2 0 9 -7 16 -15z m305 -5 c3 -5 -3 -10 -14
-10 -11 0 -23 5 -26 10 -3 6 3 10 14 10 11 0 23 -4 26 -10z m1340 0 c3 -5 1
-10 -4 -10 -6 0 -11 5 -11 10 0 6 2 10 4 10 3 0 8 -4 11 -10z m-825 -20 c0 -5
-5 -10 -11 -10 -5 0 -7 5 -4 10 3 6 8 10 11 10 2 0 4 -4 4 -10z m-1610 -4 c0
-2 -7 -7 -16 -10 -8 -3 -12 -2 -9 4 6 10 25 14 25 6z m959 1 c-2 -2 -12 -9
-21 -16 -15 -11 -18 -11 -18 1 0 7 10 14 21 15 12 1 20 1 18 0z m871 -8 c0 8
2 12 5 9 3 -3 3 -13 -1 -22 -7 -19 -24 -11 -24 12 0 15 2 15 10 2 8 -12 10
-12 10 -1z m380 7 c0 -3 -4 -8 -10 -11 -5 -3 -10 -1 -10 4 0 6 5 11 10 11 6 0
10 -2 10 -4z"/>
<path d="M4346 3397 c3 -10 9 -15 12 -12 3 3 0 11 -7 18 -10 9 -11 8 -5 -6z"/>
<path d="M2830 3060 c0 -5 5 -10 10 -10 6 0 10 5 10 10 0 6 -4 10 -10 10 -5 0
-10 -4 -10 -10z"/>
<path d="M505 2980 c-3 -5 -1 -10 4 -10 6 0 11 5 11 10 0 6 -2 10 -4 10 -3 0
-8 -4 -11 -10z"/>
<path d="M2520 2569 c0 -5 5 -7 10 -4 6 3 10 8 10 11 0 2 -4 4 -10 4 -5 0 -10
-5 -10 -11z"/>
<path d="M3075 1790 c-15 -6 -7 -9 28 -9 26 -1 47 3 47 7 0 11 -49 12 -75 2z"/>
<path d="M3172 4078 c-19 -19 -14 -38 11 -38 17 0 19 2 7 10 -12 8 -12 10 3
16 9 3 14 10 11 15 -7 12 -18 11 -32 -3z"/>
<path d="M3041 4024 c0 -11 3 -14 6 -6 3 7 2 16 -1 19 -3 4 -6 -2 -5 -13z"/>
<path d="M2950 3960 c0 -5 5 -10 11 -10 5 0 7 5 4 10 -3 6 -8 10 -11 10 -2 0
-4 -4 -4 -10z"/>
<path d="M2824 3916 c-4 -10 -2 -21 5 -26 9 -5 7 -9 -7 -12 -16 -4 -19 -2 -15
11 4 13 3 13 -5 2 -6 -8 -8 -21 -5 -29 3 -8 0 -18 -8 -22 -10 -7 -6 -11 14
-19 63 -24 78 -25 84 -2 3 11 12 21 19 21 8 0 14 6 14 13 0 6 14 20 31 30 18
10 28 21 25 25 -4 4 -8 5 -9 3 -1 -2 -12 1 -25 8 -14 8 -28 9 -35 3 -18 -13
-60 -13 -69 1 -5 8 -9 6 -14 -7z"/>
<path d="M2997 3903 c-4 -3 -7 -21 -7 -39 0 -32 0 -32 33 -21 17 7 34 15 37
18 3 3 14 11 25 17 17 10 17 11 3 12 -9 0 -20 -4 -23 -10 -10 -17 -25 -11 -25
10 0 20 -28 28 -43 13z"/>
<path d="M2550 3819 c0 -5 5 -7 10 -4 6 3 10 8 10 11 0 2 -4 4 -10 4 -5 0 -10
-5 -10 -11z"/>
<path d="M2686 3809 c6 -10 -13 -13 -73 -9 -34 1 -44 -2 -50 -17 -3 -10 -15
-30 -25 -45 -19 -28 -19 -28 0 -28 23 0 54 32 50 51 -2 10 8 14 37 14 22 0 46
4 53 8 7 5 25 6 41 2 18 -4 32 -2 37 6 5 9 1 11 -14 7 -12 -4 -22 -3 -22 2 0
4 -9 10 -20 13 -11 3 -18 1 -14 -4z"/>
<path d="M2815 3775 c-16 -8 -40 -14 -53 -15 -15 0 -21 -4 -16 -11 5 -9 -6
-10 -40 -5 -27 4 -46 3 -46 -2 0 -14 51 -21 78 -11 13 5 36 9 53 9 27 0 69 25
69 42 0 11 -9 9 -45 -7z"/>
<path d="M2450 3740 c-12 -8 -11 -10 8 -10 12 0 22 5 22 10 0 13 -11 13 -30 0z"/>
<path d="M2937 3715 c-4 -8 -2 -17 3 -20 13 -8 52 14 45 26 -9 14 -42 11 -48
-6z"/>
<path d="M2391 3699 c-1 -15 -8 -29 -16 -33 -8 -3 -20 -17 -25 -31 -9 -25 -17
-28 -75 -29 -24 -1 -29 -5 -27 -21 5 -31 29 -52 44 -37 18 18 38 15 38 -5 1
-16 2 -16 15 1 8 11 23 20 32 21 31 4 53 17 53 31 0 8 -6 14 -14 14 -23 0 -26
27 -5 53 23 30 24 37 5 37 -8 0 -17 6 -19 13 -3 6 -6 0 -6 -14z m-1 -89 c0 -5
-6 -10 -14 -10 -8 0 -16 -6 -19 -12 -2 -7 -7 -10 -11 -7 -3 3 -4 14 0 23 7 17
44 23 44 6z"/>
<path d="M2657 3683 c-9 -20 -15 -39 -13 -41 8 -7 47 19 41 28 -3 5 -1 11 5
15 14 9 12 35 -3 35 -7 0 -20 -17 -30 -37z"/>
<path d="M2346 3701 c-7 -10 18 -34 27 -25 7 8 -3 34 -13 34 -5 0 -11 -4 -14
-9z"/>
<path d="M2260 3690 c0 -5 7 -10 15 -10 8 0 15 5 15 10 0 6 -7 10 -15 10 -8 0
-15 -4 -15 -10z"/>
<path d="M2153 3683 c4 -3 -1 -12 -11 -20 -13 -11 -13 -13 -2 -10 8 2 25 0 37
-4 13 -5 25 -4 28 1 4 6 -1 10 -10 10 -8 0 -18 7 -21 15 -4 8 -11 15 -17 15
-6 0 -7 -3 -4 -7z"/>
<path d="M2298 3633 c6 -2 18 -2 25 0 6 3 1 5 -13 5 -14 0 -19 -2 -12 -5z"/>
<path d="M2157 3589 c-4 -16 -3 -18 9 -8 7 6 11 15 8 20 -8 13 -11 11 -17 -12z"/>
<path d="M648 3583 c7 -3 16 -2 19 1 4 3 -2 6 -13 5 -11 0 -14 -3 -6 -6z"/>
<path d="M2090 3580 c-12 -8 -9 -10 13 -10 16 0 26 4 22 10 -8 12 -16 12 -35
0z"/>
<path d="M4565 3567 c-5 -7 -11 -19 -13 -27 -2 -8 -7 -17 -11 -20 -10 -6 -8
-116 1 -126 4 -4 5 -17 2 -30 -4 -16 1 -28 15 -41 13 -11 21 -29 21 -50 0 -17
5 -35 10 -38 7 -4 10 55 10 169 0 134 -3 176 -12 176 -7 -1 -17 -6 -23 -13z
m-4 -220 c-10 -9 -11 -8 -5 6 3 10 9 15 12 12 3 -3 0 -11 -7 -18z"/>
<path d="M2215 3560 c-12 -4 -27 -15 -34 -24 -7 -9 -17 -13 -22 -10 -5 3 -9
-4 -9 -15 0 -22 1 -22 112 -25 14 -1 24 6 26 17 3 14 -1 17 -20 12 -30 -7 -60
11 -39 24 20 13 9 30 -14 21z"/>
<path d="M1845 3550 c-3 -5 -1 -10 4 -10 6 0 11 5 11 10 0 6 -2 10 -4 10 -3 0
-8 -4 -11 -10z"/>
<path d="M2037 3530 c-24 -28 -21 -37 12 -42 25 -4 30 -1 34 21 9 45 -16 56
-46 21z"/>
<path d="M2374 3536 c-6 -17 2 -36 17 -36 12 0 12 37 -1 45 -6 3 -13 -1 -16
-9z"/>
<path d="M1898 3519 c-22 -12 -24 -39 -3 -39 16 0 29 22 23 39 -2 6 -9 6 -20
0z"/>
<path d="M768 3493 c7 -3 16 -2 19 1 4 3 -2 6 -13 5 -11 0 -14 -3 -6 -6z"/>
<path d="M1800 3480 c-12 -8 -9 -10 13 -10 15 0 27 5 27 10 0 13 -20 13 -40 0z"/>
<path d="M1677 3460 c3 -11 9 -17 15 -14 5 3 4 12 -3 20 -16 19 -18 18 -12 -6z"/>
<path d="M2127 3473 c-17 -16 -6 -35 18 -31 13 3 23 1 22 -4 -1 -6 5 -15 14
-20 18 -12 69 -3 69 13 0 6 -4 8 -9 5 -16 -10 -41 5 -41 25 0 22 -10 24 -29 7
-11 -10 -14 -10 -18 0 -5 13 -16 16 -26 5z"/>
<path d="M2740 3470 c13 -8 12 -10 -3 -10 -10 0 -16 -4 -13 -9 4 -5 2 -11 -4
-13 -6 -2 -6 -9 0 -18 7 -12 12 -11 28 8 10 12 23 18 27 14 4 -4 2 3 -4 16 -6
12 -19 22 -29 22 -15 0 -15 -2 -2 -10z"/>
<path d="M2070 3460 c0 -13 18 -22 24 -11 3 5 -1 11 -9 15 -8 3 -15 1 -15 -4z"/>
<path d="M1750 3436 c-7 -19 -14 -23 -31 -19 -18 5 -21 3 -16 -10 3 -9 1 -17
-5 -19 -7 -3 -8 -9 -3 -19 5 -8 8 -22 7 -31 -4 -21 -1 -22 33 -6 27 12 33 28
11 28 -21 0 -30 19 -12 26 8 3 30 -1 47 -10 18 -9 40 -16 50 -16 21 0 43 35
33 51 -3 6 2 20 13 31 18 21 18 21 -2 14 -38 -15 -95 -19 -95 -7 0 20 -20 11
-30 -13z"/>
<path d="M2624 3402 c4 -7 1 -12 -7 -12 -11 0 -15 -11 -14 -40 2 -35 6 -42 27
-46 14 -3 31 -8 38 -10 7 -2 27 3 44 12 23 12 27 19 19 27 -8 8 -20 7 -46 -7
-39 -21 -42 -20 -45 9 -4 35 0 45 15 45 8 0 15 5 15 10 0 6 -4 10 -9 10 -5 0
-17 3 -27 7 -12 4 -15 3 -10 -5z"/>
<path d="M1891 3381 c-7 -5 -10 -14 -7 -20 8 -13 46 3 46 19 0 12 -20 13 -39
1z"/>
<path d="M2679 3364 l-24 -27 25 13 c14 8 36 19 50 27 l25 13 -26 0 c-15 0
-36 -11 -50 -26z"/>
<path d="M3184 3379 c-9 -15 -2 -18 20 -9 17 6 18 7 3 13 -9 3 -19 2 -23 -4z"/>
<path d="M150 3370 c0 -6 7 -10 15 -10 8 0 15 2 15 4 0 2 -7 6 -15 10 -8 3
-15 1 -15 -4z"/>
<path d="M0 3349 c0 -5 5 -7 10 -4 5 3 10 8 10 11 0 2 -4 4 -10 4 -5 0 -10 -5
-10 -11z"/>
<path d="M3146 3344 c-5 -14 -4 -15 9 -4 17 14 19 20 6 20 -5 0 -12 -7 -15
-16z"/>
<path d="M1642 3339 c2 -7 10 -15 17 -17 8 -3 12 1 9 9 -2 7 -10 15 -17 17 -8
3 -12 -1 -9 -9z"/>
<path d="M1927 3344 c-8 -8 1 -24 14 -24 5 0 9 7 9 15 0 15 -12 20 -23 9z"/>
<path d="M2930 3330 c-8 -5 -10 -10 -5 -10 6 0 17 5 25 10 8 5 11 10 5 10 -5
0 -17 -5 -25 -10z"/>
<path d="M330 3299 c0 -5 -4 -7 -10 -4 -5 3 -7 0 -4 -8 6 -17 38 -12 55 9 9
11 6 14 -15 14 -14 0 -26 -5 -26 -11z"/>
<path d="M425 3300 c3 -5 11 -10 16 -10 6 0 7 5 4 10 -3 6 -11 10 -16 10 -6 0
-7 -4 -4 -10z"/>
<path d="M4517 3293 c-4 -3 -7 -11 -7 -17 0 -6 5 -5 12 2 6 6 9 14 7 17 -3 3
-9 2 -12 -2z"/>
<path d="M7 3273 c-11 -10 -8 -83 3 -83 6 0 13 6 16 14 3 8 17 17 32 21 15 4
21 10 14 12 -9 4 -6 10 9 24 17 15 19 19 6 19 -9 0 -19 -5 -23 -11 -4 -8 -9
-8 -17 0 -12 12 -30 14 -40 4z"/>
<path d="M2882 3264 c9 -9 21 -13 27 -9 16 10 3 25 -22 25 -20 0 -20 -1 -5
-16z"/>
<path d="M169 3263 c-1 -5 -1 -11 0 -15 0 -4 -6 -5 -13 -2 -10 4 -14 0 -12
-12 4 -25 43 -28 56 -5 5 11 10 24 10 30 0 12 -39 15 -41 4z"/>
<path d="M280 3247 c0 -19 16 -31 24 -18 3 5 -1 14 -9 21 -12 10 -15 10 -15
-3z"/>
<path d="M436 3245 c-14 -11 -17 -18 -9 -26 8 -8 13 -8 17 0 4 6 16 11 26 11
13 0 17 5 14 15 -8 19 -23 19 -48 0z"/>
<path d="M2775 3250 c-3 -5 -1 -10 4 -10 6 0 11 5 11 10 0 6 -2 10 -4 10 -3 0
-8 -4 -11 -10z"/>
<path d="M2995 3250 c-8 -13 -1 -24 14 -19 6 3 7 10 2 18 -6 10 -10 10 -16 1z"/>
<path d="M101 3241 c-10 -6 -10 -10 -1 -16 13 -8 24 -1 19 14 -3 6 -10 7 -18
2z"/>
<path d="M3030 3241 c0 -5 -3 -16 -6 -25 -4 -11 -1 -16 10 -16 11 0 15 8 14
25 -2 23 -18 37 -18 16z"/>
<path d="M1083 3233 c9 -2 23 -2 30 0 6 3 -1 5 -18 5 -16 0 -22 -2 -12 -5z"/>
<path d="M1143 3233 c9 -2 25 -2 35 0 9 3 1 5 -18 5 -19 0 -27 -2 -17 -5z"/>
<path d="M590 3210 l-35 -7 43 -2 c23 0 42 4 42 9 0 6 -3 9 -7 9 -5 -1 -24 -5
-43 -9z"/>
<path d="M870 3200 c0 -5 5 -10 11 -10 5 0 7 5 4 10 -3 6 -8 10 -11 10 -2 0
-4 -4 -4 -10z"/>
<path d="M397 3186 c-4 -10 -1 -13 9 -9 15 6 19 23 5 23 -5 0 -11 -7 -14 -14z"/>
<path d="M316 3175 c4 -8 10 -15 15 -15 4 0 6 7 3 15 -4 8 -10 15 -15 15 -4 0
-6 -7 -3 -15z"/>
<path d="M746 3175 c-3 -9 0 -15 9 -15 16 0 20 16 6 24 -5 3 -11 -1 -15 -9z"/>
<path d="M81 3164 c0 -11 3 -14 6 -6 3 7 2 16 -1 19 -3 4 -6 -2 -5 -13z"/>
<path d="M561 3171 c-20 -13 3 -23 33 -15 14 3 23 10 20 15 -7 11 -35 11 -53
0z"/>
<path d="M25 3160 c3 -5 12 -10 20 -10 8 0 17 5 20 10 4 6 -5 10 -20 10 -15 0
-24 -4 -20 -10z"/>
<path d="M176 3126 l-18 -34 -70 4 c-63 4 -70 3 -64 -12 4 -10 1 -21 -6 -26
-8 -5 -2 -6 16 -2 19 5 31 2 37 -7 7 -11 9 -11 9 2 0 13 14 18 61 23 47 6 66
13 84 32 13 14 32 25 42 24 33 -4 45 0 41 12 -2 6 -28 13 -59 15 -53 3 -55 2
-73 -31z m-56 -40 c0 -2 -11 -6 -25 -8 -13 -3 -22 -1 -19 3 5 9 44 13 44 5z"/>
<path d="M717 3143 c-4 -3 -7 -11 -7 -17 0 -6 5 -5 12 2 6 6 9 14 7 17 -3 3
-9 2 -12 -2z"/>
<path d="M403 3123 c9 -9 20 -13 24 -9 4 4 1 11 -7 16 -25 16 -35 11 -17 -7z"/>
<path d="M1555 3120 c3 -5 13 -10 21 -10 8 0 12 5 9 10 -3 6 -13 10 -21 10 -8
0 -12 -4 -9 -10z"/>
<path d="M250 3095 c0 -17 26 -20 35 -4 4 6 13 8 21 5 8 -3 14 -1 14 4 0 6
-16 10 -35 10 -24 0 -35 -5 -35 -15z"/>
<path d="M23 2986 c4 -10 1 -16 -8 -16 -11 0 -15 -12 -15 -42 0 -38 3 -43 23
-44 12 0 29 -4 38 -8 12 -5 19 0 24 21 5 15 7 34 6 42 -1 8 3 17 10 22 20 12
-8 41 -29 30 -10 -6 -24 -5 -36 1 -16 9 -18 7 -13 -6z"/>
<path d="M680 2970 c0 -5 5 -10 11 -10 5 0 7 5 4 10 -3 6 -8 10 -11 10 -2 0
-4 -4 -4 -10z"/>
<path d="M908 2953 c7 -3 16 -2 19 1 4 3 -2 6 -13 5 -11 0 -14 -3 -6 -6z"/>
<path d="M1185 2940 c3 -5 8 -10 11 -10 2 0 4 5 4 10 0 6 -5 10 -11 10 -5 0
-7 -4 -4 -10z"/>
<path d="M870 2928 c0 -6 -9 -22 -21 -34 -19 -21 -20 -29 -14 -109 4 -47 13
-91 20 -98 6 -7 14 -19 18 -27 3 -9 6 -10 6 -2 1 6 8 12 17 12 13 0 14 3 5 13
-6 8 -8 17 -4 21 4 4 1 11 -7 16 -11 7 -9 10 12 10 15 0 30 5 33 10 3 6 16 10
28 11 16 1 14 3 -9 8 -51 13 -50 10 -45 99 1 6 8 12 16 12 8 0 15 9 15 21 0
11 -4 18 -8 15 -5 -3 -16 4 -25 15 -19 21 -37 25 -37 7z"/>
<path d="M1390 2915 c0 -8 4 -15 9 -15 5 0 11 7 15 15 3 9 0 15 -9 15 -8 0
-15 -7 -15 -15z"/>
<path d="M1481 2809 c-13 -17 -20 -33 -17 -36 8 -9 56 38 56 54 0 22 -15 15
-39 -18z"/>
<path d="M1498 2766 c-10 -7 -18 -19 -18 -26 0 -9 5 -8 18 3 10 10 29 17 41
17 12 0 19 4 16 10 -9 14 -37 12 -57 -4z"/>
<path d="M1429 2744 c-12 -14 -11 -16 5 -13 11 2 21 10 24 17 5 17 -13 15 -29
-4z"/>
<path d="M930 2710 c8 -5 20 -10 25 -10 6 0 3 5 -5 10 -8 5 -19 10 -25 10 -5
0 -3 -5 5 -10z"/>
<path d="M1439 2713 c-10 -2 -19 -12 -22 -22 -4 -17 -2 -17 23 -4 21 10 35 11
56 3 25 -10 27 -9 14 3 -18 18 -49 26 -71 20z"/>
<path d="M3250 2611 c0 -12 6 -21 16 -21 9 0 14 7 12 17 -5 25 -28 28 -28 4z"/>
<path d="M1492 2604 c-24 -10 -21 -11 28 -7 74 6 82 9 37 14 -20 3 -49 0 -65
-7z"/>
<path d="M3435 2540 c-3 -6 1 -7 9 -4 18 7 21 14 7 14 -6 0 -13 -4 -16 -10z"/>
<path d="M2866 2434 c-8 -22 -8 -26 3 -19 5 3 12 1 16 -4 7 -12 35 -3 35 10 0
5 -7 9 -15 9 -8 0 -15 5 -15 10 0 16 -17 12 -24 -6z"/>
<path d="M2951 2434 c0 -11 3 -14 6 -6 3 7 2 16 -1 19 -3 4 -6 -2 -5 -13z"/>
<path d="M2866 2384 c-10 -26 -7 -42 9 -48 12 -4 15 3 15 29 0 36 -13 47 -24
19z"/>
<path d="M2830 2330 c0 -5 5 -10 10 -10 6 0 10 5 10 10 0 6 -4 10 -10 10 -5 0
-10 -4 -10 -10z"/>
<path d="M2865 2281 c-11 -4 -30 -6 -42 -5 -16 1 -22 -5 -25 -27 -3 -15 -1
-26 4 -23 5 3 6 -7 3 -23 -3 -15 -2 -21 2 -13 13 29 64 69 81 64 13 -5 14 -4
3 4 -7 5 -10 15 -7 21 8 12 8 12 -19 2z"/>
<path d="M3162 2138 c-17 -17 -15 -28 6 -28 10 0 23 -5 29 -11 8 -8 16 -3 27
20 16 31 16 31 -9 31 -17 0 -25 -6 -26 -17 0 -17 -1 -17 -7 0 -6 14 -10 15
-20 5z"/>
<path d="M3255 2140 c3 -5 1 -10 -5 -10 -6 0 -8 -4 -5 -10 10 -17 25 -11 25
10 0 11 -5 20 -11 20 -5 0 -7 -4 -4 -10z"/>
<path d="M3280 2140 c0 -5 5 -10 10 -10 6 0 10 5 10 10 0 6 -4 10 -10 10 -5 0
-10 -4 -10 -10z"/>
<path d="M3030 2034 c0 -14 3 -15 18 -3 9 7 19 15 21 16 2 2 -5 3 -17 3 -14 0
-22 -6 -22 -16z"/>
<path d="M2728 2033 c7 -3 16 -2 19 1 4 3 -2 6 -13 5 -11 0 -14 -3 -6 -6z"/>
<path d="M2780 2026 c0 -9 5 -16 10 -16 6 0 10 4 10 9 0 6 -4 13 -10 16 -5 3
-10 -1 -10 -9z"/>
<path d="M2728 2013 c7 -3 16 -2 19 1 4 3 -2 6 -13 5 -11 0 -14 -3 -6 -6z"/>
<path d="M3088 1973 c7 -3 16 -2 19 1 4 3 -2 6 -13 5 -11 0 -14 -3 -6 -6z"/>
<path d="M3105 1930 c3 -5 11 -10 16 -10 6 0 7 5 4 10 -3 6 -11 10 -16 10 -6
0 -7 -4 -4 -10z"/>
<path d="M3672 1735 c-11 -12 -10 -15 3 -15 8 0 15 7 15 15 0 18 -2 18 -18 0z"/>
<path d="M1511 444 c0 -11 3 -14 6 -6 3 7 2 16 -1 19 -3 4 -6 -2 -5 -13z"/>
</g>
</svg>
